<?xml version="1.0" encoding="UTF-8"?>
<svg xmlns="http://www.w3.org/2000/svg" xmlns:xlink="http://www.w3.org/1999/xlink" width="290pt" height="381pt" viewBox="0 0 290 381" version="1.1">
<g id="surface1">
<path style=" stroke:none;fill-rule:nonzero;fill:rgb(0%,0%,0%);fill-opacity:1;" d="M 153.492188 22.671875 C 153.402344 22.785156 153.113281 23.457031 152.84375 24.160156 C 151.667969 27.332031 149.660156 31.601562 148.015625 34.414062 C 147.242188 35.746094 145.144531 38.929688 142.074219 43.398438 C 141.648438 44.035156 141.300781 44.441406 141.179688 44.441406 C 140.855469 44.441406 132.71875 42.882812 131.160156 42.523438 C 127.304688 41.640625 122.691406 40.046875 118.578125 38.199219 C 117.121094 37.539062 117.007812 37.527344 116.695312 38.007812 C 116.558594 38.199219 116.605469 38.367188 117.054688 39.34375 C 118.835938 43.253906 120.425781 47.746094 121.34375 51.5 C 121.9375 53.929688 123.507812 62.277344 123.394531 62.378906 C 123.351562 62.410156 122.511719 62.992188 121.523438 63.65625 C 120.539062 64.328125 118.679688 65.582031 117.378906 66.457031 C 116.089844 67.328125 114.320312 68.460938 113.457031 68.964844 C 110.453125 70.734375 106.273438 72.695312 102.921875 73.917969 L 101.464844 74.445312 L 101.433594 74.847656 C 101.386719 75.351562 101.476562 75.40625 103.484375 76.148438 C 105.476562 76.886719 107.484375 77.78125 109.894531 78.980469 C 113.355469 80.71875 114.945312 81.703125 120.953125 85.816406 L 123.394531 87.496094 L 123.339844 87.957031 C 123.25 88.695312 121.828125 96.132812 121.511719 97.488281 C 120.671875 101.253906 118.722656 106.914062 117.054688 110.453125 C 116.773438 111.046875 116.539062 111.605469 116.539062 111.695312 C 116.539062 111.921875 116.90625 112.222656 117.199219 112.222656 C 117.332031 112.222656 117.738281 112.078125 118.09375 111.898438 C 121.007812 110.417969 126.925781 108.324219 130.601562 107.460938 C 133.378906 106.800781 141.203125 105.34375 141.300781 105.46875 C 141.695312 105.894531 146.738281 113.445312 147.554688 114.800781 C 149.503906 118.058594 151.757812 122.800781 152.890625 126.027344 C 153.335938 127.269531 153.402344 127.402344 153.660156 127.4375 C 154.199219 127.503906 154.355469 127.304688 154.917969 125.8125 C 155.757812 123.570312 156.699219 121.421875 157.851562 119.125 C 159.734375 115.371094 160.386719 114.296875 165.046875 107.460938 C 165.808594 106.351562 166.4375 105.433594 166.449219 105.421875 C 166.457031 105.410156 167.398438 105.566406 168.542969 105.792969 C 177.453125 107.496094 178.5625 107.753906 182.203125 108.972656 C 184.769531 109.835938 187.457031 110.890625 189.351562 111.773438 C 190.730469 112.425781 190.898438 112.4375 191.101562 111.851562 C 191.1875 111.605469 191.101562 111.328125 190.574219 110.183594 C 188.34375 105.300781 186.773438 100.390625 185.742188 95.136719 C 185.273438 92.761719 184.332031 87.742188 184.332031 87.652344 C 184.332031 87.597656 189.464844 84.058594 191.726562 82.566406 C 195.59375 80.011719 200.738281 77.445312 205.0625 75.921875 C 206.035156 75.574219 206.261719 75.453125 206.394531 75.183594 C 206.539062 74.890625 206.53125 74.859375 206.261719 74.625 C 206.105469 74.488281 205.734375 74.285156 205.429688 74.1875 C 201.082031 72.59375 196.445312 70.367188 193.015625 68.214844 C 191.558594 67.308594 184.476562 62.511719 184.398438 62.390625 C 184.363281 62.320312 184.589844 61.054688 185.742188 55.027344 C 185.96875 53.851562 186.347656 52.09375 186.59375 51.105469 C 187.414062 47.800781 189.261719 42.636719 190.683594 39.601562 C 191.03125 38.882812 191.277344 38.210938 191.246094 38.121094 C 191.210938 38.03125 191.054688 37.875 190.910156 37.773438 C 190.640625 37.605469 190.5625 37.628906 188.914062 38.367188 C 186.730469 39.355469 184.992188 40.046875 182.964844 40.742188 C 179.222656 42.019531 176.992188 42.570312 171.222656 43.65625 C 168.914062 44.09375 166.917969 44.472656 166.785156 44.507812 C 166.59375 44.550781 166.4375 44.382812 165.886719 43.578125 C 165.515625 43.039062 164.351562 41.324219 163.296875 39.789062 C 160.496094 35.691406 159.613281 34.234375 157.941406 30.882812 C 156.699219 28.398438 155.734375 26.191406 154.972656 24.09375 C 154.671875 23.242188 154.414062 22.535156 154.414062 22.515625 C 154.414062 22.378906 153.628906 22.515625 153.492188 22.671875 Z M 154.691406 26.683594 C 155.65625 29.011719 157.394531 32.554688 158.546875 34.59375 C 159.589844 36.394531 161.011719 38.59375 163.566406 42.289062 C 164.519531 43.667969 165.28125 44.808594 165.257812 44.820312 C 165.238281 44.84375 164.621094 45.046875 163.882812 45.28125 C 162.222656 45.808594 160.519531 46.660156 159.117188 47.65625 C 157.839844 48.574219 155.613281 50.757812 154.648438 52.035156 L 153.953125 52.957031 L 153.269531 52.09375 C 152.394531 50.972656 150.546875 49.078125 149.539062 48.261719 C 147.800781 46.839844 146.097656 45.90625 144.070312 45.257812 C 143.375 45.035156 142.78125 44.820312 142.726562 44.777344 C 142.679688 44.742188 143.488281 43.476562 144.519531 41.964844 C 148.261719 36.484375 149.179688 34.996094 150.996094 31.355469 C 151.914062 29.515625 153.570312 25.808594 153.796875 25.082031 C 153.839844 24.933594 153.886719 24.832031 153.917969 24.855469 C 153.941406 24.878906 154.289062 25.707031 154.691406 26.683594 Z M 119.238281 39.800781 C 120.472656 40.429688 124.886719 42.019531 127.542969 42.804688 C 130.265625 43.609375 131.296875 43.835938 136.933594 44.886719 C 138.925781 45.269531 140.585938 45.582031 140.597656 45.605469 C 140.617188 45.617188 140.382812 46.109375 140.082031 46.691406 C 138.535156 49.628906 137.972656 52.226562 138.097656 55.925781 C 138.132812 57.089844 138.199219 58.355469 138.230469 58.714844 L 138.308594 59.375 L 137.984375 59.296875 C 137.804688 59.25 136.417969 59.183594 134.902344 59.152344 C 132.640625 59.105469 131.933594 59.128906 130.925781 59.285156 C 128.886719 59.609375 126.949219 60.269531 125.367188 61.191406 C 124.988281 61.414062 124.652344 61.546875 124.605469 61.503906 C 124.5625 61.457031 124.203125 59.746094 123.820312 57.714844 C 122.957031 53.089844 122.691406 51.855469 122.140625 49.808594 C 121.390625 47.0625 119.796875 42.535156 118.734375 40.148438 L 118.441406 39.5 L 118.6875 39.578125 C 118.835938 39.613281 119.082031 39.710938 119.238281 39.800781 Z M 188.78125 40.945312 C 187.917969 43.007812 186.839844 45.988281 186.246094 47.9375 C 185.273438 51.171875 185.003906 52.351562 183.882812 58.433594 C 183.570312 60.125 183.289062 61.539062 183.265625 61.582031 C 183.234375 61.636719 182.628906 61.378906 181.910156 61.011719 C 180.441406 60.269531 178.660156 59.65625 177.136719 59.375 C 175.960938 59.160156 172.082031 59.09375 170.449219 59.273438 L 169.507812 59.375 L 169.585938 58.9375 C 169.617188 58.703125 169.6875 57.4375 169.71875 56.136719 C 169.84375 52.070312 169.394531 49.808594 167.882812 46.871094 C 167.546875 46.210938 167.289062 45.648438 167.308594 45.628906 C 167.332031 45.605469 168.644531 45.347656 170.210938 45.054688 C 176.09375 43.96875 178.046875 43.53125 180.78125 42.703125 C 183.1875 41.976562 187.691406 40.316406 188.792969 39.746094 C 189.015625 39.621094 189.226562 39.578125 189.238281 39.632812 C 189.261719 39.691406 189.058594 40.285156 188.78125 40.945312 Z M 143.65625 46.367188 C 146.085938 47.140625 148.035156 48.363281 150.164062 50.492188 C 151.65625 51.96875 153.179688 53.761719 153.179688 54.03125 C 153.179688 54.109375 152.96875 54.535156 152.710938 54.996094 C 151.230469 57.605469 150.199219 61 149.976562 64.058594 L 149.898438 65.042969 L 148.988281 64.25 C 146.648438 62.21875 143.441406 60.597656 140.070312 59.710938 C 139.699219 59.621094 139.667969 59.578125 139.53125 58.949219 C 139.441406 58.558594 139.351562 57.246094 139.320312 55.835938 C 139.273438 53.863281 139.296875 53.191406 139.453125 52.261719 C 139.800781 50.144531 140.359375 48.597656 141.4375 46.703125 C 141.972656 45.761719 141.816406 45.785156 143.65625 46.367188 Z M 166.953125 47.734375 C 167.757812 49.382812 168.195312 50.757812 168.429688 52.339844 C 168.710938 54.34375 168.542969 59.117188 168.152344 59.609375 C 168.082031 59.6875 167.546875 59.902344 166.964844 60.070312 C 163.992188 60.933594 161.148438 62.476562 158.773438 64.515625 C 158.433594 64.808594 158.109375 65.054688 158.078125 65.054688 C 158.03125 65.054688 158 64.683594 158 64.238281 C 157.988281 61.570312 156.820312 57.707031 155.140625 54.847656 C 154.929688 54.480469 154.75 54.109375 154.75 54.019531 C 154.75 53.726562 156.363281 51.765625 157.605469 50.546875 C 159.914062 48.273438 161.964844 47.0625 164.992188 46.175781 C 165.628906 45.996094 165.941406 45.953125 166.042969 46.03125 C 166.121094 46.097656 166.527344 46.859375 166.953125 47.734375 Z M 154.9375 57.054688 C 156.304688 59.945312 156.980469 63.0625 156.800781 65.738281 C 156.730469 66.601562 156.710938 66.679688 156.117188 67.554688 C 155.332031 68.730469 154.703125 70.007812 154.335938 71.21875 C 154.03125 72.226562 153.898438 72.484375 153.808594 72.214844 C 153.078125 69.882812 152.5625 68.683594 151.667969 67.296875 L 151.128906 66.46875 L 151.195312 64.605469 C 151.265625 62.5 151.5 61.234375 152.171875 59.230469 C 152.632812 57.839844 153.515625 55.847656 153.820312 55.507812 C 153.988281 55.320312 154.007812 55.320312 154.167969 55.542969 C 154.246094 55.667969 154.59375 56.351562 154.9375 57.054688 Z M 137.492188 60.449219 C 138.613281 60.640625 138.726562 60.675781 138.726562 60.855469 C 138.726562 60.945312 138.949219 61.695312 139.21875 62.523438 C 140.082031 65.132812 141.726562 68.101562 143.320312 69.929688 L 144.003906 70.714844 L 143.410156 70.792969 C 143.082031 70.824219 142.320312 70.914062 141.707031 70.980469 C 139.230469 71.261719 136.707031 72.101562 134.109375 73.546875 C 132.84375 74.242188 133.011719 74.265625 131.554688 73.132812 C 129.03125 71.183594 126.835938 68.425781 125.816406 65.929688 C 125.511719 65.191406 124.808594 62.902344 124.863281 62.859375 C 125.175781 62.644531 126.691406 61.828125 127.25 61.582031 C 128.503906 61.011719 130.367188 60.527344 132.113281 60.304688 C 132.796875 60.226562 136.730469 60.328125 137.492188 60.449219 Z M 176.601562 60.519531 C 177.195312 60.605469 178.125 60.808594 178.671875 60.964844 C 179.703125 61.257812 182.125 62.378906 182.671875 62.804688 L 182.976562 63.039062 L 182.761719 63.800781 C 181.988281 66.578125 180.890625 68.550781 178.898438 70.734375 C 178 71.722656 176.050781 73.445312 175.265625 73.972656 L 174.816406 74.265625 L 172.992188 73.355469 C 171.984375 72.863281 170.628906 72.28125 169.964844 72.058594 C 168.488281 71.574219 166.367188 71.148438 164.980469 71.039062 C 164.40625 71.003906 163.9375 70.925781 163.9375 70.882812 C 163.9375 70.847656 164.238281 70.457031 164.609375 70.03125 C 166.503906 67.867188 167.859375 65.3125 168.8125 62.199219 C 169.035156 61.457031 169.261719 60.808594 169.304688 60.765625 C 169.382812 60.6875 170.785156 60.4375 171.949219 60.316406 C 172.699219 60.226562 175.46875 60.347656 176.601562 60.519531 Z M 141.707031 61.480469 C 144.855469 62.546875 147.890625 64.484375 149.492188 66.433594 C 149.941406 66.980469 150.03125 67.171875 150.199219 68.023438 C 150.46875 69.367188 150.859375 70.511719 151.511719 71.878906 C 151.824219 72.503906 152.058594 73.042969 152.035156 73.066406 C 152.015625 73.089844 151.421875 72.820312 150.714844 72.460938 C 149.324219 71.789062 147.957031 71.308594 146.792969 71.09375 C 146.066406 70.972656 146.066406 70.960938 144.886719 69.773438 C 142.804688 67.664062 141.191406 64.886719 140.203125 61.714844 C 139.925781 60.855469 139.902344 60.855469 141.707031 61.480469 Z M 167.457031 62.566406 C 166.929688 64.171875 165.773438 66.5 164.878906 67.753906 C 164.117188 68.820312 162.355469 70.714844 161.910156 70.9375 C 161.742188 71.027344 161.113281 71.207031 160.507812 71.339844 C 159.140625 71.632812 158.121094 71.992188 156.832031 72.640625 C 156.296875 72.910156 155.824219 73.109375 155.789062 73.089844 C 155.769531 73.054688 156.003906 72.539062 156.304688 71.933594 C 156.945312 70.691406 157.4375 69.335938 157.71875 68.058594 C 157.953125 66.980469 158.355469 66.433594 159.824219 65.199219 C 161.160156 64.089844 162.4375 63.273438 164.105469 62.46875 C 165.585938 61.75 167.78125 60.976562 167.847656 61.15625 C 167.871094 61.210938 167.691406 61.851562 167.457031 62.566406 Z M 124.214844 64.964844 C 124.460938 65.726562 124.917969 66.882812 125.253906 67.53125 C 126.375 69.75 128.59375 72.359375 130.847656 74.097656 L 131.890625 74.890625 L 130.847656 75.730469 C 130.265625 76.191406 129.300781 77.066406 128.695312 77.671875 C 126.308594 80.078125 124.988281 82.1875 124.101562 85.019531 C 123.945312 85.523438 123.789062 86.015625 123.765625 86.097656 C 123.730469 86.195312 123.015625 85.769531 121.613281 84.820312 C 115.351562 80.550781 114.410156 79.96875 111.101562 78.265625 C 108.75 77.054688 107.070312 76.28125 105.050781 75.476562 L 103.71875 74.9375 L 104.15625 74.746094 C 104.402344 74.644531 104.960938 74.410156 105.410156 74.242188 C 106.96875 73.613281 109.558594 72.414062 111.046875 71.644531 C 114.296875 69.941406 115.945312 68.933594 120.402344 65.851562 C 122.195312 64.617188 123.675781 63.609375 123.710938 63.597656 C 123.742188 63.597656 123.96875 64.214844 124.214844 64.964844 Z M 186.414062 65.234375 C 189.652344 67.464844 191.839844 68.910156 192.960938 69.59375 C 195.546875 71.160156 199.425781 73.089844 202.539062 74.355469 C 203.347656 74.667969 204.007812 74.949219 204.03125 74.96875 C 204.042969 74.980469 203.269531 75.316406 202.292969 75.710938 C 199.929688 76.664062 195.222656 79.015625 193.050781 80.324219 C 192.085938 80.910156 189.710938 82.464844 187.78125 83.789062 C 185.855469 85.109375 184.21875 86.21875 184.152344 86.265625 C 184.085938 86.308594 183.859375 85.804688 183.570312 84.929688 C 182.773438 82.523438 181.640625 80.574219 179.917969 78.613281 C 178.996094 77.570312 177.292969 76 176.464844 75.441406 C 176.175781 75.238281 175.949219 75.050781 175.960938 75.015625 C 175.972656 74.96875 176.386719 74.625 176.878906 74.242188 C 178.113281 73.277344 180.320312 71.027344 181.214844 69.816406 C 182.167969 68.539062 183.085938 66.714844 183.625 65.03125 C 183.859375 64.304688 184.085938 63.710938 184.117188 63.710938 C 184.152344 63.710938 185.195312 64.394531 186.414062 65.234375 Z M 146.390625 72.664062 C 147.488281 73.414062 149.515625 74.375 150.523438 74.632812 C 150.9375 74.746094 151.273438 74.871094 151.273438 74.914062 C 151.273438 74.949219 150.726562 75.171875 150.042969 75.394531 C 148.6875 75.84375 147.230469 76.527344 146.132812 77.246094 L 145.414062 77.714844 L 144.183594 77.714844 C 142.03125 77.714844 139.6875 77.265625 137.414062 76.414062 C 136.25 75.980469 134.410156 75.105469 134.308594 74.925781 C 134.242188 74.8125 136.449219 73.660156 137.492188 73.257812 C 138.835938 72.742188 141 72.203125 142.253906 72.070312 C 142.5 72.046875 143.332031 72.035156 144.105469 72.046875 L 145.503906 72.070312 Z M 166.179688 72.394531 C 167.691406 72.617188 169.28125 73.054688 170.773438 73.648438 C 172.082031 74.164062 173.574219 74.902344 173.574219 75.039062 C 173.574219 75.195312 170.683594 76.515625 169.449219 76.929688 C 167.355469 77.625 166.15625 77.828125 164.0625 77.828125 L 162.257812 77.828125 L 161.328125 77.199219 C 160.171875 76.414062 158.792969 75.742188 157.550781 75.363281 C 157.023438 75.195312 156.609375 75.015625 156.621094 74.96875 C 156.632812 74.914062 157.214844 74.691406 157.910156 74.464844 C 159.320312 73.996094 160.351562 73.515625 161.527344 72.742188 L 162.3125 72.226562 L 163.714844 72.226562 C 164.488281 72.226562 165.597656 72.304688 166.179688 72.394531 Z M 133.558594 75.921875 C 135.921875 77.378906 139.410156 78.511719 142.589844 78.847656 C 143.273438 78.914062 143.847656 78.992188 143.855469 79.003906 C 143.878906 79.027344 143.542969 79.464844 143.09375 79.96875 C 141.191406 82.175781 139.6875 85.054688 138.847656 88.136719 C 138.714844 88.59375 138.546875 89.019531 138.476562 89.097656 C 138.21875 89.34375 136.898438 89.5 134.691406 89.558594 C 132.191406 89.625 130.65625 89.433594 128.761719 88.808594 C 127.632812 88.4375 125.355469 87.351562 125.007812 87.015625 C 124.808594 86.824219 124.820312 86.789062 125.167969 85.660156 C 126.332031 81.917969 128.28125 79.25 131.992188 76.347656 C 132.515625 75.933594 132.964844 75.597656 132.976562 75.585938 C 133 75.585938 133.257812 75.742188 133.558594 75.921875 Z M 175.523438 76.226562 C 178.089844 78.050781 180.601562 80.941406 181.675781 83.316406 C 182.203125 84.472656 182.796875 86.273438 182.808594 86.769531 L 182.820312 87.171875 L 181.429688 87.878906 C 179.917969 88.648438 178.4375 89.15625 176.890625 89.421875 C 175.738281 89.613281 171.746094 89.660156 170.492188 89.480469 C 169.070312 89.277344 169.125 89.3125 168.980469 88.660156 C 168.363281 86.027344 166.359375 82.152344 164.496094 80.023438 C 164.128906 79.597656 163.824219 79.207031 163.824219 79.171875 C 163.824219 79.128906 164.363281 79.058594 165.035156 79.027344 C 167.578125 78.890625 170.078125 78.175781 172.8125 76.773438 C 173.820312 76.257812 174.707031 75.832031 174.796875 75.820312 C 174.875 75.820312 175.210938 75.988281 175.523438 76.226562 Z M 152.035156 76.898438 C 152.015625 76.953125 151.734375 77.515625 151.410156 78.152344 C 150.757812 79.417969 150.265625 80.796875 150.03125 82.027344 C 149.886719 82.800781 149.875 82.824219 148.878906 83.832031 C 147.175781 85.546875 145.257812 86.8125 142.847656 87.84375 C 141.503906 88.414062 140.09375 88.863281 139.992188 88.761719 C 139.835938 88.617188 140.832031 85.847656 141.539062 84.425781 C 142.726562 82.050781 145.347656 78.9375 146.300781 78.78125 C 148.015625 78.488281 150.847656 77.515625 151.542969 76.988281 C 151.78125 76.808594 152.105469 76.761719 152.035156 76.898438 Z M 157 77.414062 C 158.210938 78.027344 159.882812 78.613281 161.078125 78.835938 C 161.730469 78.957031 161.785156 79.003906 162.929688 80.15625 C 164.285156 81.523438 165.292969 82.96875 166.28125 84.941406 C 166.964844 86.308594 167.859375 88.738281 167.726562 88.875 C 167.566406 89.019531 164.992188 88.089844 163.5 87.339844 C 162.660156 86.914062 161.503906 86.230469 160.945312 85.828125 C 159.902344 85.078125 158.3125 83.609375 157.964844 83.09375 C 157.863281 82.9375 157.671875 82.308594 157.550781 81.703125 C 157.238281 80.246094 156.753906 78.890625 156.148438 77.738281 C 155.878906 77.234375 155.703125 76.820312 155.746094 76.820312 C 155.789062 76.820312 156.363281 77.089844 157 77.414062 Z M 154.289062 78.691406 C 154.679688 79.945312 155.308594 81.289062 156.117188 82.621094 L 156.6875 83.542969 L 156.621094 85.199219 C 156.554688 87.136719 156.261719 88.75 155.632812 90.644531 C 155.117188 92.222656 154.019531 94.554688 153.820312 94.5 C 153.628906 94.429688 152.832031 92.886719 152.273438 91.507812 C 151.375 89.253906 150.847656 86.375 150.960938 84.28125 C 151.007812 83.375 151.015625 83.339844 151.644531 82.398438 C 152.417969 81.234375 153.191406 79.632812 153.527344 78.464844 C 153.671875 77.996094 153.820312 77.601562 153.863281 77.601562 C 153.910156 77.601562 154.097656 78.097656 154.289062 78.691406 Z M 149.820312 86.242188 C 149.953125 87.832031 150.355469 89.757812 150.847656 91.148438 C 151.230469 92.246094 152.226562 94.398438 152.730469 95.203125 C 152.910156 95.507812 153.066406 95.796875 153.066406 95.855469 C 153.066406 96.089844 151.609375 97.914062 150.558594 98.992188 C 148.867188 100.714844 147.140625 101.992188 145.335938 102.835938 C 144.484375 103.226562 142.589844 103.832031 142.097656 103.855469 L 141.707031 103.875 L 141.011719 102.542969 C 140.25 101.074219 139.734375 99.597656 139.429688 98.050781 C 139.195312 96.804688 139.183594 92.640625 139.417969 91.171875 C 139.554688 90.320312 139.585938 90.21875 139.84375 90.140625 C 142.90625 89.222656 144.730469 88.425781 146.679688 87.148438 C 147.644531 86.523438 149.023438 85.445312 149.414062 85.007812 C 149.539062 84.875 149.648438 84.785156 149.660156 84.808594 C 149.683594 84.828125 149.75 85.46875 149.820312 86.242188 Z M 159.355469 86.105469 C 161.359375 87.796875 164.40625 89.300781 167.601562 90.140625 C 168.152344 90.285156 168.21875 90.453125 168.417969 92 C 168.722656 94.398438 168.519531 97.488281 167.902344 99.628906 C 167.625 100.617188 166.515625 103.082031 166.066406 103.707031 L 165.84375 104.03125 L 165.058594 103.808594 C 162.972656 103.238281 161.328125 102.464844 159.78125 101.34375 C 158.625 100.492188 156.160156 98.039062 155.230469 96.796875 L 154.535156 95.875 L 155.097656 94.890625 C 156.597656 92.222656 157.582031 88.941406 157.832031 85.816406 L 157.910156 84.886719 L 158.265625 85.199219 C 158.46875 85.367188 158.960938 85.769531 159.355469 86.105469 Z M 125.929688 88.917969 C 127.386719 89.648438 128.785156 90.152344 130.097656 90.421875 C 132.226562 90.847656 134.636719 90.9375 136.875 90.65625 C 137.605469 90.566406 138.21875 90.511719 138.242188 90.53125 C 138.265625 90.554688 138.21875 91.046875 138.152344 91.640625 C 138.074219 92.300781 138.050781 93.714844 138.074219 95.214844 C 138.152344 98.710938 138.476562 100.132812 139.800781 102.8125 C 140.179688 103.585938 140.472656 104.234375 140.449219 104.257812 C 140.40625 104.300781 139.273438 104.527344 135.027344 105.332031 C 131.050781 106.082031 128.707031 106.65625 125.949219 107.539062 C 123.753906 108.257812 120.617188 109.433594 119.261719 110.050781 C 118.8125 110.25 118.441406 110.398438 118.441406 110.363281 C 118.441406 110.339844 118.710938 109.667969 119.046875 108.882812 C 120.996094 104.234375 122.34375 99.796875 123.261719 94.914062 C 124.316406 89.300781 124.515625 88.246094 124.550781 88.246094 C 124.570312 88.246094 125.1875 88.550781 125.929688 88.917969 Z M 183.253906 88.550781 C 183.289062 88.660156 183.59375 90.207031 183.929688 92 C 184.992188 97.667969 185.417969 99.519531 186.371094 102.53125 C 186.976562 104.449219 188.117188 107.585938 188.757812 109.050781 C 189.050781 109.703125 189.25 110.25 189.21875 110.285156 C 189.183594 110.316406 188.277344 109.980469 187.1875 109.546875 C 181.710938 107.316406 178.425781 106.40625 170.714844 104.996094 C 168.8125 104.636719 167.230469 104.335938 167.210938 104.324219 C 167.1875 104.300781 167.433594 103.785156 167.746094 103.160156 C 168.050781 102.53125 168.453125 101.65625 168.632812 101.210938 C 169.617188 98.710938 169.988281 95.203125 169.597656 91.945312 C 169.519531 91.238281 169.460938 90.644531 169.484375 90.621094 C 169.507812 90.601562 170.113281 90.644531 170.839844 90.722656 C 171.648438 90.800781 173.003906 90.835938 174.347656 90.800781 C 176.195312 90.746094 176.757812 90.6875 177.886719 90.429688 C 179.414062 90.09375 181.105469 89.457031 182.257812 88.808594 C 183.167969 88.292969 183.175781 88.292969 183.253906 88.550781 Z M 154.691406 98.015625 C 155.679688 99.28125 158.007812 101.546875 159.21875 102.410156 C 160.519531 103.339844 162.199219 104.167969 163.78125 104.671875 C 164.507812 104.90625 165.136719 105.109375 165.160156 105.121094 C 165.179688 105.140625 164.238281 106.554688 163.0625 108.269531 C 160.363281 112.222656 159.445312 113.632812 158.523438 115.269531 C 157.101562 117.757812 155.175781 121.789062 154.246094 124.175781 C 153.964844 124.894531 153.742188 125.21875 153.742188 124.894531 C 153.742188 124.625 152.160156 121.019531 151.105469 118.890625 C 149.269531 115.15625 148.550781 113.960938 145 108.75 C 143.847656 107.058594 142.816406 105.535156 142.714844 105.367188 L 142.523438 105.074219 L 143.789062 104.671875 C 145.976562 103.988281 147.824219 102.992188 149.59375 101.511719 C 150.703125 100.605469 152.6875 98.53125 153.304688 97.667969 C 153.570312 97.300781 153.808594 96.984375 153.839844 96.996094 C 153.886719 96.996094 154.265625 97.457031 154.691406 98.015625 Z M 154.691406 98.015625 "/>
<path style=" stroke:none;fill-rule:nonzero;fill:rgb(0%,0%,0%);fill-opacity:1;" d="M 56.925781 178.527344 L 56.925781 208.585938 L 73.375 208.542969 C 89.601562 208.507812 89.824219 208.507812 90.820312 208.273438 C 95.617188 207.164062 98.742188 203.859375 99.628906 198.941406 C 99.75 198.289062 99.785156 196.652344 99.785156 191.882812 C 99.785156 185.003906 99.773438 184.8125 99.046875 183.085938 C 98.195312 181.023438 96.433594 179.164062 94.375 178.113281 L 93.890625 177.867188 L 94.855469 177.183594 C 96.535156 175.984375 97.734375 174.492188 98.394531 172.789062 C 99.078125 171.019531 99.101562 170.75 99.113281 164.65625 C 99.113281 158.605469 99.070312 158 98.484375 156.230469 C 97.285156 152.546875 94.519531 149.933594 90.710938 148.894531 L 89.589844 148.578125 L 73.25 148.523438 L 56.925781 148.46875 Z M 89.757812 150.359375 C 93.78125 151.3125 96.367188 153.945312 97.230469 157.933594 C 97.410156 158.785156 97.433594 159.480469 97.433594 164.433594 C 97.433594 169.429688 97.410156 170.066406 97.230469 170.863281 C 96.792969 172.6875 95.953125 174.222656 94.675781 175.523438 C 94.015625 176.207031 92.691406 177.136719 92.019531 177.417969 C 91.449219 177.652344 91.539062 178 92.246094 178.335938 C 94.453125 179.355469 96.378906 181.238281 97.308594 183.277344 C 98.082031 184.96875 98.082031 184.957031 98.136719 191.097656 C 98.160156 194.714844 98.136719 197.058594 98.058594 197.839844 C 97.578125 202.425781 95.058594 205.425781 90.730469 206.582031 L 89.8125 206.828125 L 74.214844 206.859375 L 58.605469 206.90625 L 58.605469 150.082031 L 73.765625 150.125 C 87.839844 150.160156 88.972656 150.167969 89.757812 150.359375 Z M 89.757812 150.359375 "/>
<path style=" stroke:none;fill-rule:nonzero;fill:rgb(0%,0%,0%);fill-opacity:1;" d="M 62.078125 178.546875 L 62.078125 203.757812 L 74.382812 203.757812 C 86.609375 203.757812 87.863281 203.722656 89.253906 203.363281 C 91.191406 202.859375 92.828125 201.550781 93.65625 199.835938 C 94.542969 198.042969 94.519531 198.210938 94.519531 191.152344 L 94.519531 184.878906 L 94.214844 183.984375 C 93.21875 181.070312 90.742188 178.75 87.851562 178.042969 L 87.066406 177.855469 L 88.132812 177.484375 C 89.601562 176.980469 90.328125 176.519531 91.492188 175.355469 C 92.582031 174.28125 93.085938 173.460938 93.578125 171.996094 L 93.847656 171.210938 L 93.847656 165.382812 C 93.847656 158.832031 93.859375 158.917969 92.996094 157.171875 C 92.085938 155.3125 90.328125 154.023438 88.074219 153.566406 C 87.054688 153.351562 86.449219 153.339844 74.550781 153.339844 L 62.078125 153.339844 Z M 87.894531 155.246094 C 90.105469 155.804688 91.492188 157.207031 92.042969 159.402344 C 92.199219 160.027344 92.222656 160.914062 92.222656 165.472656 L 92.222656 170.828125 L 91.917969 171.738281 C 91.066406 174.324219 88.535156 176.207031 85.105469 176.8125 C 84.277344 176.957031 82.550781 176.980469 73.945312 176.980469 L 63.757812 176.980469 L 63.757812 155.019531 L 75.390625 155.019531 C 86.617188 155.019531 87.066406 155.03125 87.894531 155.246094 Z M 84.714844 178.773438 C 86.082031 178.953125 87.28125 179.3125 88.46875 179.894531 C 90.71875 180.992188 92.1875 182.683594 92.726562 184.800781 C 92.984375 185.808594 92.917969 197.15625 92.648438 197.929688 C 91.917969 200.027344 90.675781 201.214844 88.578125 201.820312 C 87.964844 202 86.933594 202.019531 75.839844 202.054688 L 63.757812 202.085938 L 63.757812 178.660156 L 73.820312 178.660156 C 79.636719 178.660156 84.230469 178.71875 84.714844 178.773438 Z M 84.714844 178.773438 "/>
<path style=" stroke:none;fill-rule:nonzero;fill:rgb(0%,0%,0%);fill-opacity:1;" d="M 67.3125 158 C 67.265625 158.046875 67.234375 161.710938 67.234375 166.136719 L 67.234375 174.179688 L 76.175781 174.179688 C 86.015625 174.179688 86.148438 174.167969 87.191406 173.507812 C 87.894531 173.046875 88.355469 172.332031 88.578125 171.332031 C 88.738281 170.648438 88.757812 169.808594 88.726562 165.832031 C 88.691406 161.417969 88.679688 161.09375 88.46875 160.601562 C 87.941406 159.367188 87.125 158.59375 85.890625 158.179688 C 85.386719 158.011719 84.398438 157.988281 76.367188 157.957031 C 71.425781 157.945312 67.355469 157.957031 67.3125 158 Z M 85.609375 159.90625 C 85.890625 160.039062 86.25 160.285156 86.417969 160.464844 C 87.042969 161.136719 87.066406 161.363281 87.066406 166.191406 C 87.066406 169.015625 87.023438 170.785156 86.945312 171.085938 C 86.796875 171.691406 86.273438 172.207031 85.667969 172.375 C 85.363281 172.453125 82.574219 172.5 77.070312 172.5 L 68.914062 172.5 L 68.914062 159.601562 L 77.015625 159.636719 C 84.996094 159.671875 85.117188 159.671875 85.609375 159.90625 Z M 85.609375 159.90625 "/>
<path style=" stroke:none;fill-rule:nonzero;fill:rgb(0%,0%,0%);fill-opacity:1;" d="M 67.3125 181.527344 C 67.265625 181.574219 67.234375 185.539062 67.234375 190.335938 L 67.234375 199.0625 L 76.734375 199.027344 L 86.226562 198.996094 L 86.898438 198.726562 C 87.808594 198.355469 88.726562 197.4375 89.09375 196.53125 L 89.363281 195.859375 L 89.363281 184.429688 L 89.074219 183.816406 C 88.679688 182.984375 88.320312 182.570312 87.640625 182.210938 C 86.429688 181.539062 86.394531 181.539062 76.476562 181.496094 C 71.480469 181.460938 67.367188 181.484375 67.3125 181.527344 Z M 86.28125 183.398438 C 86.921875 183.65625 87.359375 184.070312 87.570312 184.644531 C 87.726562 185.035156 87.738281 185.820312 87.71875 190.378906 L 87.683594 195.65625 L 87.347656 196.195312 C 87.113281 196.585938 86.84375 196.820312 86.449219 197.023438 L 85.902344 197.316406 L 77.40625 197.347656 L 68.914062 197.371094 L 68.914062 183.132812 L 77.351562 183.164062 C 85.074219 183.199219 85.824219 183.222656 86.28125 183.398438 Z M 86.28125 183.398438 "/>
<path style=" stroke:none;fill-rule:nonzero;fill:rgb(0%,0%,0%);fill-opacity:1;" d="M 111.09375 148.511719 C 111.070312 148.535156 111.046875 162.066406 111.046875 178.570312 L 111.046875 208.574219 L 148.25 208.574219 L 148.25 197.257812 L 135.675781 197.238281 L 123.09375 197.203125 L 123.058594 172.835938 L 123.035156 148.46875 L 117.085938 148.46875 C 113.816406 148.46875 111.113281 148.488281 111.09375 148.511719 Z M 121.355469 174.460938 L 121.355469 198.828125 L 146.570312 198.828125 L 146.570312 206.894531 L 112.726562 206.894531 L 112.726562 150.089844 L 121.355469 150.089844 Z M 121.355469 174.460938 "/>
<path style=" stroke:none;fill-rule:nonzero;fill:rgb(0%,0%,0%);fill-opacity:1;" d="M 116.222656 178.515625 L 116.257812 203.703125 L 129.683594 203.734375 L 143.09375 203.757812 L 143.09375 202.078125 L 117.882812 202.078125 L 117.882812 153.339844 L 116.203125 153.339844 Z M 116.222656 178.515625 "/>
<path style=" stroke:none;fill-rule:nonzero;fill:rgb(0%,0%,0%);fill-opacity:1;" d="M 156.464844 148.578125 C 156.441406 148.644531 156.441406 159.996094 156.464844 173.789062 L 156.496094 198.882812 L 156.789062 200.082031 C 158.03125 205.066406 161.628906 208.203125 166.792969 208.808594 C 167.457031 208.886719 171.546875 208.910156 178.617188 208.878906 C 190.25 208.832031 189.890625 208.855469 191.726562 208.238281 C 195.726562 206.917969 198.519531 203.566406 199.191406 199.277344 C 199.335938 198.355469 199.347656 194.917969 199.324219 173.363281 L 199.289062 148.523438 L 187.414062 148.523438 L 187.355469 172.074219 L 187.300781 195.632812 L 187.019531 196.195312 C 186.652344 196.945312 186.046875 197.347656 185.105469 197.496094 C 184.65625 197.5625 181.742188 197.59375 177.441406 197.574219 C 171.03125 197.539062 170.460938 197.527344 170.042969 197.335938 C 169.519531 197.101562 169.035156 196.664062 168.777344 196.195312 C 168.597656 195.882812 168.585938 193.976562 168.53125 172.183594 L 168.476562 148.523438 L 162.492188 148.488281 C 158.445312 148.476562 156.496094 148.5 156.464844 148.578125 Z M 166.851562 173.113281 L 166.90625 196.082031 L 167.164062 196.710938 C 167.523438 197.605469 168.171875 198.300781 169.070312 198.738281 L 169.820312 199.109375 L 177.609375 199.140625 C 184.566406 199.175781 185.472656 199.152344 186.089844 198.996094 C 187.3125 198.671875 188.230469 197.832031 188.722656 196.609375 L 188.980469 195.96875 L 189.015625 173.027344 L 189.039062 150.089844 L 197.667969 150.089844 L 197.644531 174.648438 L 197.609375 199.21875 L 197.296875 200.226562 C 196.398438 203.085938 194.898438 204.921875 192.457031 206.109375 C 191.839844 206.414062 190.886719 206.78125 190.328125 206.917969 L 189.316406 207.175781 L 166.457031 207.175781 L 165.347656 206.871094 C 162.445312 206.066406 160.464844 204.453125 159.230469 201.910156 C 158.625 200.640625 158.390625 199.859375 158.222656 198.492188 C 158.097656 197.425781 158.054688 150.292969 158.1875 150.167969 C 158.234375 150.125 160.183594 150.101562 162.527344 150.113281 L 166.792969 150.148438 Z M 166.851562 173.113281 "/>
<path style=" stroke:none;fill-rule:nonzero;fill:rgb(0%,0%,0%);fill-opacity:1;" d="M 161.730469 175.660156 C 161.753906 196.777344 161.761719 198.019531 161.953125 198.660156 C 162.726562 201.226562 164.597656 203.085938 167.019531 203.703125 C 168.453125 204.070312 169.742188 204.105469 178.730469 204.058594 C 188.78125 204.015625 188.320312 204.046875 190.257812 203.117188 C 192.109375 202.234375 193.296875 200.742188 193.921875 198.492188 C 194.125 197.796875 194.136719 196.710938 194.171875 175.546875 L 194.191406 153.339844 L 192.511719 153.339844 L 192.511719 175.152344 C 192.511719 199.277344 192.554688 197.785156 191.785156 199.34375 C 191.109375 200.722656 189.867188 201.683594 188.117188 202.167969 C 187.46875 202.335938 186.59375 202.355469 177.945312 202.355469 C 169.238281 202.355469 168.417969 202.34375 167.746094 202.15625 C 166.617188 201.851562 165.664062 201.335938 165.011719 200.675781 C 164.296875 199.949219 163.894531 199.21875 163.566406 198.078125 L 163.320312 197.203125 L 163.289062 175.300781 L 163.265625 153.394531 L 162.480469 153.363281 L 161.695312 153.328125 Z M 161.730469 175.660156 "/>
<path style=" stroke:none;fill-rule:nonzero;fill:rgb(0%,0%,0%);fill-opacity:1;" d="M 211.71875 148.511719 C 211.695312 148.535156 211.671875 162.066406 211.671875 178.570312 L 211.671875 208.574219 L 251.003906 208.574219 L 251.003906 197.257812 L 237.367188 197.238281 L 223.71875 197.203125 L 223.71875 183.535156 L 234.734375 183.5 L 245.738281 183.476562 L 245.738281 172.164062 L 223.664062 172.164062 L 223.664062 159.839844 L 251.003906 159.839844 L 250.980469 154.179688 L 250.949219 148.523438 L 231.359375 148.488281 C 220.582031 148.476562 211.742188 148.488281 211.71875 148.511719 Z M 249.300781 154.148438 L 249.324219 158.15625 L 221.980469 158.15625 L 221.980469 173.84375 L 244.167969 173.84375 L 244.167969 181.796875 L 233.109375 181.820312 L 222.039062 181.855469 L 222.003906 190.335938 L 221.980469 198.828125 L 235.621094 198.851562 L 249.269531 198.882812 L 249.300781 202.882812 L 249.324219 206.894531 L 213.355469 206.894531 L 213.355469 150.089844 L 231.316406 150.113281 L 249.269531 150.148438 Z M 249.300781 154.148438 "/>
<path style=" stroke:none;fill-rule:nonzero;fill:rgb(0%,0%,0%);fill-opacity:1;" d="M 216.828125 178.546875 L 216.828125 203.757812 L 245.738281 203.757812 L 245.738281 202.078125 L 218.507812 202.078125 L 218.507812 178.660156 L 240.582031 178.660156 L 240.582031 176.980469 L 218.507812 176.980469 L 218.507812 155.019531 L 245.738281 155.019531 L 245.738281 153.339844 L 216.828125 153.339844 Z M 216.828125 178.546875 "/>
<path style=" stroke:none;fill-rule:nonzero;fill:rgb(0%,0%,0%);fill-opacity:1;" d="M 183.265625 226.398438 C 181.585938 226.613281 179.660156 227.320312 178.214844 228.238281 C 177.316406 228.808594 175.90625 230.210938 175.300781 231.105469 C 174.28125 232.652344 173.597656 234.511719 173.359375 236.417969 C 173.273438 237.109375 173.238281 243.351562 173.238281 256.75 C 173.238281 277.5 173.226562 277.140625 173.796875 279.058594 C 175.066406 283.28125 178.503906 286.214844 182.988281 286.890625 C 183.582031 286.976562 187.246094 287 195.535156 286.976562 L 207.246094 286.945312 L 208.144531 286.6875 C 212.019531 285.601562 214.742188 283.167969 215.976562 279.707031 C 216.726562 277.613281 216.714844 277.824219 216.714844 264.796875 L 216.714844 253.054688 L 193.746094 253.054688 L 193.746094 263.921875 L 204.738281 263.921875 L 204.703125 268.882812 L 204.667969 273.847656 L 204.378906 274.398438 C 204.175781 274.789062 203.941406 275.058594 203.550781 275.292969 L 203.011719 275.628906 L 195.378906 275.664062 C 190.089844 275.683594 187.570312 275.664062 187.179688 275.574219 C 186.425781 275.417969 185.765625 274.84375 185.484375 274.140625 C 185.296875 273.636719 185.285156 272.816406 185.285156 256.628906 L 185.285156 239.652344 L 185.621094 238.992188 C 185.921875 238.410156 186.046875 238.285156 186.617188 237.984375 L 187.289062 237.648438 L 194.605469 237.613281 C 199.359375 237.59375 202.160156 237.625 202.574219 237.703125 C 203.371094 237.851562 204.019531 238.285156 204.390625 238.9375 C 204.667969 239.441406 204.667969 239.464844 204.703125 242.710938 L 204.738281 245.996094 L 216.726562 245.996094 L 216.691406 240.921875 L 216.648438 235.855469 L 216.347656 234.734375 C 215.15625 230.457031 212.253906 227.65625 207.886719 226.589844 C 206.921875 226.355469 206.730469 226.34375 195.480469 226.320312 C 189.195312 226.308594 183.703125 226.34375 183.265625 226.398438 Z M 207.75 228.269531 C 209.027344 228.605469 210.777344 229.480469 211.683594 230.230469 C 212.894531 231.238281 213.9375 232.773438 214.472656 234.34375 C 214.96875 235.820312 215.035156 236.496094 215.035156 240.515625 L 215.035156 244.316406 L 206.429688 244.316406 L 206.382812 241.761719 C 206.339844 239.476562 206.316406 239.148438 206.09375 238.601562 C 205.601562 237.335938 204.757812 236.5625 203.480469 236.203125 C 202.933594 236.035156 201.925781 236.023438 194.742188 236.046875 L 186.628906 236.078125 L 186 236.371094 C 185.117188 236.785156 184.511719 237.378906 184.085938 238.242188 L 183.714844 238.992188 L 183.714844 274.398438 L 183.972656 274.957031 C 184.535156 276.167969 185.554688 276.960938 186.910156 277.253906 C 187.355469 277.34375 189.675781 277.367188 195.367188 277.34375 L 203.214844 277.308594 L 203.839844 277.050781 C 204.589844 276.75 205.410156 276.066406 205.789062 275.417969 C 206.363281 274.429688 206.40625 273.972656 206.40625 267.863281 L 206.40625 262.242188 L 195.425781 262.242188 L 195.425781 254.734375 L 215.046875 254.734375 L 215.011719 266.015625 C 214.980469 277.296875 214.980469 277.308594 214.730469 278.207031 C 214.585938 278.699219 214.214844 279.628906 213.902344 280.277344 C 213.398438 281.285156 213.1875 281.589844 212.300781 282.472656 C 210.542969 284.234375 208.671875 285.074219 205.925781 285.320312 C 204.378906 285.464844 185.609375 285.453125 184.039062 285.320312 C 179.558594 284.929688 176.441406 282.375 175.277344 278.160156 L 174.976562 277.085938 L 174.976562 236.417969 L 175.222656 235.429688 C 176.261719 231.375 179.253906 228.707031 183.503906 228.082031 C 183.859375 228.023438 189.261719 227.992188 195.480469 228.003906 L 206.796875 228.023438 Z M 207.75 228.269531 "/>
<path style=" stroke:none;fill-rule:nonzero;fill:rgb(0%,0%,0%);fill-opacity:1;" d="M 185.285156 231.207031 C 182.144531 231.53125 179.78125 233.355469 178.90625 236.148438 C 178.75 236.605469 178.582031 237.480469 178.515625 238.074219 C 178.347656 239.5625 178.347656 273.8125 178.515625 275.304688 C 178.648438 276.523438 179.042969 277.824219 179.535156 278.710938 C 180.097656 279.683594 181.238281 280.738281 182.324219 281.277344 C 184.164062 282.171875 183.425781 282.117188 194.472656 282.160156 C 201.644531 282.183594 204.558594 282.160156 205.175781 282.070312 C 208.289062 281.578125 210.316406 279.808594 211.246094 276.78125 C 211.492188 275.964844 211.492188 275.929688 211.539062 266.800781 L 211.570312 257.648438 L 198.898438 257.648438 L 198.898438 259.328125 L 209.878906 259.328125 L 209.878906 267.171875 C 209.878906 275.820312 209.867188 276.03125 209.183594 277.457031 C 208.75 278.386719 207.796875 279.359375 206.855469 279.808594 C 205.410156 280.515625 205.519531 280.515625 194.605469 280.46875 C 185.6875 280.445312 184.667969 280.425781 184.1875 280.257812 C 183.199219 279.910156 182.324219 279.359375 181.699219 278.699219 C 181.027344 277.992188 180.644531 277.289062 180.332031 276.132812 C 180.140625 275.449219 180.128906 274.328125 180.128906 256.640625 C 180.128906 238.824219 180.140625 237.839844 180.332031 237.15625 C 181.015625 234.746094 182.5625 233.367188 185.082031 232.941406 C 185.980469 232.785156 187.367188 232.773438 195.503906 232.796875 C 204.042969 232.832031 204.949219 232.851562 205.566406 233.03125 C 207.828125 233.695312 209.242188 235.195312 209.710938 237.425781 C 209.8125 237.882812 209.878906 238.824219 209.878906 239.6875 L 209.878906 241.175781 L 211.59375 241.175781 L 211.527344 239.296875 C 211.460938 237.109375 211.304688 236.371094 210.632812 235.015625 C 209.757812 233.246094 208.132812 231.992188 205.945312 231.40625 C 205.015625 231.160156 204.90625 231.160156 195.59375 231.140625 C 190.417969 231.128906 185.777344 231.160156 185.285156 231.207031 Z M 185.285156 231.207031 "/>
<path style=" stroke:none;fill-rule:nonzero;fill:rgb(0%,0%,0%);fill-opacity:1;" d="M 40.285156 226.746094 C 40.25 226.824219 40.238281 240.347656 40.25 256.808594 L 40.285156 286.722656 L 52.273438 286.722656 L 52.308594 275.59375 L 52.328125 264.480469 L 57.171875 264.503906 L 62.011719 264.539062 L 65.6875 272.996094 C 67.714844 277.644531 69.890625 282.640625 70.515625 284.085938 L 71.660156 286.722656 L 78.046875 286.753906 C 81.554688 286.765625 84.457031 286.742188 84.488281 286.699219 C 84.535156 286.640625 82.328125 281.542969 79.605469 275.347656 C 76.871094 269.152344 74.652344 264.042969 74.664062 264 C 74.683594 263.945312 75.03125 263.785156 75.445312 263.640625 C 79.222656 262.320312 81.933594 258.933594 82.605469 254.734375 C 82.71875 254.007812 82.753906 251.84375 82.753906 245.378906 C 82.753906 236.011719 82.765625 236.148438 81.96875 233.917969 C 81.429688 232.417969 80.679688 231.230469 79.558594 230.074219 C 77.6875 228.160156 75.445312 227.082031 72.578125 226.726562 C 71.144531 226.546875 40.351562 226.566406 40.285156 226.746094 Z M 72.578125 228.40625 C 76.367188 228.910156 79.28125 231.21875 80.476562 234.679688 C 81.0625 236.347656 81.050781 236.226562 81.09375 244.695312 C 81.140625 252.953125 81.09375 254.175781 80.691406 255.777344 C 80.042969 258.308594 78.191406 260.617188 75.929688 261.726562 C 75.054688 262.152344 73.328125 262.6875 72.824219 262.6875 C 72.65625 262.6875 72.488281 262.734375 72.445312 262.789062 C 72.410156 262.84375 72.65625 263.519531 72.992188 264.28125 C 73.316406 265.042969 75.121094 269.132812 76.980469 273.386719 C 81.667969 284.066406 82.023438 284.894531 82.023438 285.007812 C 82.023438 285.050781 79.941406 285.097656 77.386719 285.097656 C 73.8125 285.097656 72.722656 285.0625 72.644531 284.949219 C 72.589844 284.882812 71.75 283 70.796875 280.78125 C 69.453125 277.679688 64.949219 267.292969 63.1875 263.269531 L 62.988281 262.800781 L 50.648438 262.800781 L 50.625 273.914062 L 50.59375 285.039062 L 41.964844 285.039062 L 41.929688 256.660156 L 41.910156 228.292969 L 56.800781 228.292969 C 66.414062 228.292969 72.007812 228.339844 72.578125 228.40625 Z M 72.578125 228.40625 "/>
<path style=" stroke:none;fill-rule:nonzero;fill:rgb(0%,0%,0%);fill-opacity:1;" d="M 45.496094 256.640625 L 45.496094 281.847656 L 47.0625 281.847656 L 47.085938 270.777344 L 47.121094 259.71875 L 65.496094 259.71875 L 68.800781 267.292969 C 70.617188 271.460938 72.792969 276.4375 73.621094 278.363281 L 75.132812 281.847656 L 76.007812 281.847656 C 76.476562 281.847656 76.871094 281.824219 76.871094 281.800781 C 76.871094 281.78125 74.707031 276.804688 72.0625 270.746094 L 67.246094 259.71875 L 69.285156 259.652344 C 71.03125 259.585938 71.46875 259.539062 72.308594 259.28125 C 73.484375 258.933594 73.910156 258.722656 74.785156 258.085938 C 76.050781 257.144531 76.992188 255.53125 77.375 253.667969 C 77.53125 252.875 77.554688 251.820312 77.519531 245.15625 L 77.488281 237.535156 L 77.128906 236.503906 C 76.445312 234.554688 75.3125 233.199219 73.699219 232.394531 C 72.757812 231.921875 71.917969 231.699219 70.59375 231.542969 C 70.035156 231.476562 64.699219 231.429688 57.574219 231.429688 L 45.496094 231.429688 Z M 71.546875 233.367188 C 73.261719 233.871094 74.515625 234.835938 75.167969 236.160156 C 75.851562 237.558594 75.863281 237.59375 75.863281 245.558594 C 75.863281 252.347656 75.851562 252.839844 75.648438 253.636719 C 75.527344 254.105469 75.289062 254.757812 75.121094 255.082031 C 74.707031 255.921875 73.722656 256.863281 72.824219 257.289062 C 71.335938 257.996094 71.660156 257.984375 58.761719 257.984375 L 47.0625 257.984375 L 47.0625 245.625 C 47.0625 238.824219 47.097656 233.222656 47.140625 233.179688 C 47.1875 233.132812 52.542969 233.121094 59.054688 233.132812 C 69.910156 233.167969 70.929688 233.1875 71.546875 233.367188 Z M 71.546875 233.367188 "/>
<path style=" stroke:none;fill-rule:nonzero;fill:rgb(0%,0%,0%);fill-opacity:1;" d="M 50.648438 245.660156 L 50.648438 254.957031 L 59.367188 254.957031 C 64.722656 254.957031 68.355469 254.914062 68.800781 254.847656 C 70.347656 254.601562 71.546875 253.703125 72.074219 252.390625 C 72.332031 251.765625 72.332031 251.765625 72.332031 245.601562 L 72.332031 239.441406 L 72.03125 238.800781 C 71.613281 237.917969 71.234375 237.4375 70.617188 237.042969 C 69.496094 236.335938 69.777344 236.359375 59.757812 236.359375 L 50.648438 236.359375 Z M 69.25 238.21875 C 69.53125 238.355469 69.890625 238.601562 70.058594 238.78125 C 70.695312 239.464844 70.707031 239.585938 70.707031 245.59375 C 70.707031 249.085938 70.664062 251.25 70.582031 251.519531 C 70.4375 252.046875 69.910156 252.660156 69.316406 252.976562 C 68.859375 253.222656 68.859375 253.222656 60.601562 253.253906 L 52.328125 253.289062 L 52.328125 237.917969 L 60.542969 237.949219 C 68.632812 237.984375 68.757812 237.984375 69.25 238.21875 Z M 69.25 238.21875 "/>
<path style=" stroke:none;fill-rule:nonzero;fill:rgb(0%,0%,0%);fill-opacity:1;" d="M 94.574219 256.695312 L 94.574219 286.777344 L 106.566406 286.777344 L 106.566406 226.613281 L 94.574219 226.613281 Z M 104.863281 256.660156 L 104.828125 285.039062 L 96.199219 285.039062 L 96.167969 256.808594 C 96.15625 241.277344 96.167969 228.507812 96.199219 228.429688 C 96.234375 228.328125 97.21875 228.292969 100.570312 228.292969 L 104.882812 228.292969 Z M 104.863281 256.660156 "/>
<path style=" stroke:none;fill-rule:nonzero;fill:rgb(0%,0%,0%);fill-opacity:1;" d="M 99.730469 256.640625 L 99.730469 281.847656 L 101.410156 281.847656 L 101.386719 256.660156 L 101.355469 231.488281 L 100.546875 231.453125 L 99.730469 231.417969 Z M 99.730469 256.640625 "/>
<path style=" stroke:none;fill-rule:nonzero;fill:rgb(0%,0%,0%);fill-opacity:1;" d="M 119.789062 256.695312 L 119.789062 286.789062 L 136.238281 286.742188 C 150.679688 286.710938 152.777344 286.675781 153.515625 286.519531 C 157.976562 285.578125 160.980469 282.980469 162.289062 278.933594 C 162.894531 277.074219 162.871094 277.925781 162.871094 256.640625 C 162.871094 238.019531 162.863281 236.808594 162.671875 235.867188 C 161.71875 231.183594 158.714844 228.089844 153.964844 226.914062 C 153.023438 226.679688 152.867188 226.679688 136.40625 226.644531 L 119.789062 226.601562 Z M 153.035156 228.460938 C 157.101562 229.121094 159.902344 231.710938 160.933594 235.753906 L 161.191406 236.753906 L 161.191406 276.636719 L 160.933594 277.644531 C 160.621094 278.921875 159.746094 280.683594 159.007812 281.589844 C 157.414062 283.539062 155.007812 284.726562 152.125 284.984375 C 151.386719 285.050781 144.886719 285.097656 136.179688 285.097656 L 121.46875 285.097656 L 121.46875 228.292969 L 136.742188 228.292969 C 149.75 228.292969 152.160156 228.316406 153.035156 228.460938 Z M 153.035156 228.460938 "/>
<path style=" stroke:none;fill-rule:nonzero;fill:rgb(0%,0%,0%);fill-opacity:1;" d="M 124.941406 256.640625 L 124.941406 281.859375 L 138.253906 281.824219 L 151.554688 281.792969 L 152.375 281.535156 C 155.632812 280.535156 157.316406 278.351562 157.664062 274.675781 C 157.808594 273.140625 157.808594 240.070312 157.664062 238.601562 C 157.449219 236.472656 156.867188 235.027344 155.703125 233.804688 C 154.46875 232.496094 152.933594 231.789062 150.792969 231.554688 C 150.085938 231.476562 145.425781 231.429688 137.324219 231.429688 L 124.941406 231.429688 Z M 151.117188 233.277344 C 153.628906 233.726562 155.175781 235.128906 155.835938 237.59375 C 156.027344 238.277344 156.039062 239.476562 156.039062 256.695312 C 156.039062 274.195312 156.027344 275.101562 155.835938 275.796875 C 155.511719 276.917969 155.117188 277.644531 154.457031 278.363281 C 153.75 279.136719 152.84375 279.640625 151.65625 279.941406 C 150.816406 280.15625 150.378906 280.167969 138.703125 280.167969 L 126.621094 280.167969 L 126.621094 233.109375 L 138.378906 233.109375 C 148.472656 233.109375 150.265625 233.132812 151.117188 233.277344 Z M 151.117188 233.277344 "/>
<path style=" stroke:none;fill-rule:nonzero;fill:rgb(0%,0%,0%);fill-opacity:1;" d="M 130.097656 256.695312 L 130.097656 277.03125 L 139.375 277.03125 C 145.796875 277.03125 148.855469 276.996094 149.292969 276.90625 C 150.75 276.613281 151.859375 275.617188 152.285156 274.230469 C 152.507812 273.511719 152.507812 273.21875 152.484375 256.414062 L 152.453125 239.328125 L 152.082031 238.578125 C 151.65625 237.714844 151.050781 237.121094 150.164062 236.707031 L 149.539062 236.417969 L 139.824219 236.382812 L 130.097656 236.359375 Z M 149.371094 238.21875 C 149.988281 238.5 150.546875 239.128906 150.714844 239.6875 C 150.804688 239.988281 150.828125 245.03125 150.804688 256.941406 L 150.769531 273.757812 L 150.433594 274.25 C 150.246094 274.507812 149.863281 274.855469 149.59375 275.011719 L 149.089844 275.292969 L 140.4375 275.328125 L 131.777344 275.347656 L 131.777344 237.917969 L 140.328125 237.949219 C 148.710938 237.984375 148.878906 237.984375 149.371094 238.21875 Z M 149.371094 238.21875 "/>
<path style=" stroke:none;fill-rule:nonzero;fill:rgb(0%,0%,0%);fill-opacity:1;" d="M 228.28125 256.660156 L 228.3125 286.722656 L 247.957031 286.753906 L 267.589844 286.777344 L 267.589844 275.347656 L 240.246094 275.347656 L 240.246094 261.679688 L 262.433594 261.679688 L 262.433594 250.363281 L 251.375 250.34375 L 240.304688 250.308594 L 240.304688 237.984375 L 253.953125 237.949219 L 267.589844 237.929688 L 267.589844 226.613281 L 228.257812 226.613281 Z M 265.886719 232.292969 L 265.851562 236.304688 L 252.238281 236.335938 L 238.621094 236.359375 L 238.644531 244.179688 L 238.679688 251.988281 L 249.714844 252.023438 L 260.753906 252.046875 L 260.753906 260 L 249.714844 260.023438 L 238.679688 260.054688 L 238.679688 276.972656 L 252.292969 277.007812 L 265.90625 277.03125 L 265.90625 285.097656 L 247.957031 285.074219 L 229.996094 285.039062 L 229.960938 256.660156 L 229.9375 228.292969 L 265.90625 228.292969 Z M 265.886719 232.292969 "/>
<path style=" stroke:none;fill-rule:nonzero;fill:rgb(0%,0%,0%);fill-opacity:1;" d="M 233.492188 231.507812 C 233.445312 231.542969 233.410156 242.890625 233.410156 256.71875 L 233.410156 281.847656 L 262.445312 281.847656 L 262.410156 281.027344 L 262.378906 280.222656 L 248.742188 280.1875 L 235.09375 280.167969 L 235.09375 256.863281 L 246.164062 256.839844 L 257.222656 256.808594 L 257.257812 255.988281 L 257.289062 255.183594 L 235.09375 255.183594 L 235.09375 233.109375 L 262.445312 233.109375 L 262.410156 232.292969 L 262.378906 231.488281 L 247.96875 231.453125 C 240.046875 231.441406 233.523438 231.464844 233.492188 231.507812 Z M 233.492188 231.507812 "/>
<path style=" stroke:none;fill-rule:nonzero;fill:rgb(0%,0%,0%);fill-opacity:1;" d="M 152.417969 315 C 151.554688 315.257812 151.152344 315.613281 150.660156 316.578125 C 150.15625 317.574219 149.59375 319.199219 149.59375 319.671875 C 149.59375 319.882812 149.515625 320.21875 149.414062 320.410156 C 149.089844 321.050781 148.808594 321.980469 148.640625 323.042969 C 148.550781 323.625 148.394531 324.277344 148.304688 324.5 C 147.980469 325.261719 147.34375 329.832031 147.085938 333.148438 L 146.917969 335.3125 L 146.433594 335.726562 C 146.175781 335.949219 145.605469 336.453125 145.167969 336.847656 C 143.945312 337.964844 142.398438 338.875 141.707031 338.875 C 141.347656 338.875 141.335938 338.996094 141.738281 337.148438 C 142.074219 335.558594 142.152344 334.078125 141.929688 333.058594 C 141.660156 331.804688 141.359375 331.355469 140.070312 330.371094 C 139.84375 330.191406 139.789062 330.058594 139.777344 329.597656 C 139.765625 328.9375 139.65625 328.78125 138.972656 328.375 C 137.714844 327.636719 137 327.671875 136.339844 328.488281 C 135.855469 329.105469 134.1875 331.917969 133.515625 333.261719 C 132.921875 334.460938 132.328125 336.183594 132.070312 337.441406 C 131.484375 340.296875 131.597656 343.222656 132.335938 344.699219 C 132.675781 345.371094 133.4375 346.132812 134.074219 346.449219 C 135.171875 346.984375 136.417969 346.695312 137.605469 345.628906 C 138.445312 344.878906 139.453125 343.46875 140.058594 342.191406 C 140.359375 341.574219 140.707031 340.96875 140.820312 340.855469 C 140.945312 340.757812 141.492188 340.519531 142.042969 340.351562 C 143.320312 339.949219 144.339844 339.34375 145.660156 338.214844 C 146.242188 337.71875 146.738281 337.328125 146.75 337.339844 C 146.769531 337.363281 146.726562 338.75 146.667969 340.441406 C 146.535156 343.960938 146.589844 345.550781 146.960938 349.796875 C 147.242188 352.878906 147.332031 353.347656 147.9375 354.984375 C 148.273438 355.871094 148.339844 355.972656 149.402344 356.96875 C 150.019531 357.550781 150.757812 358.144531 151.039062 358.277344 C 151.65625 358.582031 152.710938 358.671875 153.214844 358.480469 C 154.558594 357.941406 155.644531 356.070312 156.046875 353.574219 C 156.261719 352.230469 156.273438 351.132812 156.105469 349.125 C 155.992188 347.734375 155.914062 347.378906 155.433594 345.988281 C 154.144531 342.269531 153.246094 340.441406 151.96875 339.007812 L 151.253906 338.203125 L 151.800781 338.203125 C 152.105469 338.203125 152.621094 338.125 152.957031 338.035156 C 153.839844 337.789062 156.117188 337.195312 156.171875 337.195312 C 156.195312 337.195312 156.183594 337.304688 156.148438 337.441406 C 156.117188 337.585938 156.039062 339.085938 155.980469 340.777344 C 155.871094 344.003906 155.902344 344.933594 156.328125 349.910156 C 156.597656 353.046875 156.5625 352.84375 157.136719 354.546875 L 157.605469 355.9375 L 158.816406 357.035156 C 159.714844 357.851562 160.171875 358.1875 160.644531 358.355469 C 162.269531 358.972656 163.511719 358.355469 164.488281 356.464844 C 165.527344 354.4375 165.796875 352.082031 165.394531 348.398438 C 165.28125 347.476562 164.585938 345.070312 164.207031 344.339844 C 164.105469 344.152344 163.925781 343.691406 163.804688 343.3125 C 163.433594 342.179688 162.066406 339.804688 161.316406 338.984375 L 160.632812 338.257812 L 161.382812 338.179688 C 161.808594 338.144531 162.457031 338 162.839844 337.875 C 163.433594 337.6875 165.058594 337.304688 165.292969 337.304688 C 165.328125 337.304688 165.316406 337.597656 165.257812 337.945312 C 165 339.511719 165.675781 342.203125 166.707031 343.769531 C 167.398438 344.835938 168.667969 345.371094 170.449219 345.371094 C 171.1875 345.371094 171.320312 345.328125 172.261719 344.835938 C 173.550781 344.164062 174.796875 342.953125 176.261719 340.914062 C 176.542969 340.53125 176.789062 340.21875 176.824219 340.21875 C 176.855469 340.21875 176.992188 340.621094 177.125 341.113281 C 177.496094 342.425781 178.179688 343.769531 178.761719 344.339844 C 179.414062 344.980469 180.242188 345.261719 181.652344 345.339844 C 182.71875 345.394531 182.730469 345.394531 183.558594 344.980469 C 184.019531 344.757812 184.632812 344.386719 184.925781 344.171875 C 186.40625 343.085938 190.382812 337.628906 190.382812 336.679688 C 190.382812 336.230469 190.136719 335.960938 189.722656 335.960938 C 189.339844 335.960938 189.160156 336.152344 188.703125 337.082031 C 188.117188 338.246094 186.886719 339.984375 185.296875 341.886719 C 184.320312 343.054688 183.769531 343.46875 183.222656 343.46875 C 182.730469 343.46875 181.753906 342.929688 181.441406 342.492188 C 181.09375 342.011719 180.8125 340.914062 180.824219 340.074219 C 180.824219 338.863281 181.316406 338.011719 183.054688 336.164062 C 184.78125 334.347656 185.261719 333.742188 185.675781 332.945312 C 186.347656 331.601562 186.503906 330.550781 186.136719 329.808594 C 185.8125 329.183594 184.769531 328.285156 184.117188 328.0625 C 183.613281 327.894531 183.511719 327.894531 182.863281 328.0625 C 181.867188 328.320312 181.429688 328.578125 180.667969 329.328125 C 178.90625 331.054688 177.664062 333.574219 177.027344 336.6875 C 176.8125 337.71875 176.746094 337.886719 176.09375 338.816406 C 175.1875 340.117188 173.699219 341.988281 172.957031 342.738281 C 172.0625 343.65625 171.222656 343.691406 170.246094 342.851562 C 169.585938 342.292969 169.28125 341.460938 169.28125 340.21875 C 169.269531 338.683594 169.664062 338.011719 172.0625 335.523438 C 172.765625 334.796875 173.539062 333.878906 173.796875 333.496094 C 174.269531 332.757812 174.808594 331.265625 174.808594 330.683594 C 174.808594 329.710938 173.664062 328.421875 172.429688 328.019531 C 172.09375 327.90625 171.90625 327.917969 171.320312 328.0625 C 170.28125 328.332031 169.785156 328.621094 168.96875 329.464844 C 167.667969 330.785156 166.863281 332.164062 166.109375 334.382812 C 165.683594 335.613281 165.664062 335.660156 165.226562 335.859375 C 164.980469 335.960938 164.453125 336.140625 164.050781 336.230469 C 163.644531 336.332031 163.039062 336.488281 162.703125 336.589844 C 162.234375 336.722656 161.773438 336.746094 160.800781 336.710938 C 159.152344 336.632812 159.128906 336.632812 159.199219 336.039062 C 159.296875 335.175781 159.578125 334.359375 160.003906 333.730469 C 160.464844 333.058594 162.054688 330.347656 163.164062 328.375 C 163.535156 327.703125 163.972656 326.761719 164.128906 326.269531 C 164.285156 325.777344 164.632812 324.757812 164.902344 323.996094 C 165.347656 322.773438 165.417969 322.4375 165.515625 321.082031 C 165.683594 319.066406 165.605469 317.484375 165.304688 316.722656 C 164.832031 315.515625 163.972656 314.796875 162.972656 314.785156 C 162.378906 314.785156 161.148438 315.167969 160.753906 315.46875 C 160.171875 315.929688 158.894531 318.941406 158.894531 319.851562 C 158.894531 320.0625 158.851562 320.277344 158.792969 320.332031 C 158.59375 320.566406 158.210938 321.789062 158.007812 322.941406 C 157.886719 323.601562 157.71875 324.355469 157.617188 324.601562 C 157.238281 325.6875 156.554688 330.953125 156.363281 334.257812 C 156.273438 335.882812 156.304688 335.828125 154.917969 336.164062 C 154.425781 336.285156 153.695312 336.476562 153.292969 336.578125 C 152.71875 336.734375 152.304688 336.757812 151.386719 336.710938 C 150.074219 336.644531 149.820312 336.578125 149.820312 336.320312 C 149.820312 335.667969 150.109375 334.660156 150.457031 334.089844 C 152.71875 330.414062 154.492188 327.222656 154.761719 326.335938 C 154.882812 325.933594 155.21875 324.9375 155.511719 324.140625 C 156.039062 322.652344 156.046875 322.5625 156.273438 319.605469 C 156.40625 317.84375 156.027344 316.367188 155.21875 315.527344 C 154.480469 314.753906 153.761719 314.617188 152.417969 315 Z M 154.691406 317.070312 C 155.117188 318.078125 154.984375 321.554688 154.457031 322.988281 C 154.175781 323.792969 153.964844 324.410156 153.503906 325.878906 C 153.371094 326.28125 152.921875 327.1875 152.507812 327.894531 C 152.09375 328.601562 151.441406 329.730469 151.050781 330.394531 C 150.671875 331.054688 150.332031 331.582031 150.324219 331.570312 C 150.300781 331.546875 150.332031 331.3125 150.390625 331.03125 C 150.445312 330.75 150.570312 329.800781 150.660156 328.902344 C 150.804688 327.636719 151.027344 326.539062 151.722656 323.859375 C 152.207031 321.980469 152.632812 320.21875 152.675781 319.941406 C 152.84375 318.796875 153.304688 317.742188 153.988281 316.972656 C 154.355469 316.535156 154.480469 316.554688 154.691406 317.070312 Z M 163.972656 316.882812 C 164.0625 317.058594 164.183594 317.699219 164.25 318.316406 C 164.464844 320.207031 164.148438 322.527344 163.523438 323.78125 C 163.378906 324.074219 163.199219 324.613281 163.140625 324.960938 C 162.984375 325.808594 162.695312 326.484375 161.851562 327.894531 C 161.484375 328.542969 160.84375 329.621094 160.453125 330.292969 C 159.746094 331.511719 159.554688 331.648438 159.769531 330.773438 C 159.835938 330.515625 159.914062 329.921875 159.960938 329.464844 C 160.09375 327.882812 160.261719 326.941406 160.753906 325.039062 C 161.035156 323.984375 161.40625 322.574219 161.585938 321.902344 C 161.761719 321.21875 161.964844 320.308594 162.042969 319.882812 C 162.109375 319.445312 162.269531 318.832031 162.390625 318.515625 C 162.613281 317.902344 163.523438 316.578125 163.714844 316.578125 C 163.769531 316.578125 163.894531 316.714844 163.972656 316.882812 Z M 151.566406 317.945312 C 151.523438 318.089844 151.464844 318.335938 151.433594 318.503906 C 151.34375 318.898438 151.074219 318.910156 150.984375 318.539062 C 150.90625 318.203125 151.183594 317.699219 151.453125 317.699219 C 151.589844 317.699219 151.621094 317.765625 151.566406 317.945312 Z M 160.933594 317.765625 C 161.046875 317.878906 160.675781 318.832031 160.53125 318.785156 C 160.363281 318.730469 160.316406 318.203125 160.464844 317.921875 C 160.574219 317.710938 160.800781 317.632812 160.933594 317.765625 Z M 151.050781 319.179688 C 151.050781 319.570312 150.324219 322.125 149.988281 322.910156 C 149.5625 323.949219 149.515625 324.140625 149.425781 325.453125 C 149.371094 326.460938 149.304688 326.773438 149.144531 326.773438 C 148.898438 326.773438 148.945312 326.089844 149.335938 323.804688 C 149.503906 322.808594 150.523438 319.445312 150.738281 319.179688 C 150.804688 319.109375 150.894531 319.042969 150.949219 319.042969 C 151.007812 319.042969 151.050781 319.109375 151.050781 319.179688 Z M 160.351562 319.277344 C 160.351562 319.660156 159.679688 322.191406 159.464844 322.617188 C 159.0625 323.402344 158.871094 324.152344 158.78125 325.328125 C 158.691406 326.5625 158.625 326.828125 158.425781 326.707031 C 158.277344 326.617188 158.390625 325.304688 158.691406 323.75 C 158.882812 322.695312 159.769531 319.75 160.039062 319.234375 C 160.171875 318.976562 160.351562 318.988281 160.351562 319.277344 Z M 173.394531 330.203125 C 173.785156 331.234375 172.710938 333.238281 170.773438 335.109375 C 169.664062 336.164062 169.359375 336.375 169.472656 335.984375 C 169.507812 335.882812 169.617188 335.492188 169.71875 335.121094 C 170.113281 333.730469 171.007812 331.925781 171.824219 330.875 C 172.398438 330.144531 173.238281 329.777344 173.394531 330.203125 Z M 185.015625 330.382812 C 185.183594 331.042969 184.679688 332.332031 183.78125 333.507812 C 182.988281 334.5625 181.171875 336.320312 181.035156 336.175781 C 181.015625 336.152344 181.117188 335.703125 181.273438 335.175781 C 181.597656 334.046875 182.449219 332.21875 183.085938 331.265625 C 183.871094 330.125 184.824219 329.675781 185.015625 330.382812 Z M 140.125 332.421875 C 140.574219 332.890625 140.628906 333.183594 140.628906 334.828125 C 140.628906 336.140625 140.328125 337.820312 139.914062 338.816406 L 139.746094 339.210938 L 138.925781 339.210938 C 137.894531 339.210938 137.289062 338.953125 136.832031 338.3125 C 136.28125 337.550781 136.28125 337.316406 136.855469 336.320312 C 137.121094 335.847656 137.671875 334.828125 138.050781 334.054688 C 138.433594 333.285156 138.847656 332.523438 138.972656 332.34375 C 139.273438 331.917969 139.667969 331.9375 140.125 332.421875 Z M 150.457031 339.332031 C 151.398438 340.332031 151.757812 340.867188 152.664062 342.695312 C 153.414062 344.183594 154.355469 346.714844 154.625 347.949219 C 154.9375 349.394531 154.984375 352.632812 154.703125 353.808594 C 154.480469 354.773438 153.929688 356.082031 153.582031 356.519531 C 153.324219 356.832031 153.304688 356.84375 153.101562 356.675781 C 152.988281 356.574219 152.753906 356.453125 152.5625 356.417969 C 152.363281 356.375 151.890625 356.027344 151.421875 355.578125 C 150.679688 354.863281 150.601562 354.75 150.332031 353.886719 C 149.863281 352.398438 149.414062 346.480469 149.527344 343.242188 C 149.617188 340.765625 149.730469 338.648438 149.773438 338.648438 C 149.785156 338.648438 150.097656 338.953125 150.457031 339.332031 Z M 159.847656 339.34375 C 160.710938 340.261719 161.226562 341.070312 162.144531 342.964844 C 162.941406 344.589844 163.566406 346.3125 163.960938 347.949219 C 164.285156 349.316406 164.320312 353.070312 164.015625 354.054688 C 163.714844 355.019531 163.164062 356.25 162.90625 356.542969 C 162.703125 356.753906 162.660156 356.765625 162.390625 356.632812 C 162.222656 356.542969 161.929688 356.417969 161.742188 356.351562 C 161.550781 356.285156 161.078125 355.914062 160.699219 355.523438 C 159.566406 354.378906 159.367188 353.605469 159.0625 349.011719 C 158.972656 347.589844 158.882812 345.933594 158.859375 345.316406 C 158.828125 343.824219 159.019531 338.648438 159.109375 338.648438 C 159.152344 338.648438 159.476562 338.964844 159.847656 339.34375 Z M 136.101562 339.78125 C 136.527344 340.242188 137.222656 340.554688 138.140625 340.679688 C 138.558594 340.734375 138.925781 340.824219 138.972656 340.867188 C 139.015625 340.914062 138.824219 341.417969 138.558594 341.988281 C 138.007812 343.085938 136.898438 344.417969 136.417969 344.542969 C 135.765625 344.710938 135.027344 343.792969 135.027344 342.816406 C 135.027344 341.875 135.496094 339.433594 135.6875 339.433594 C 135.734375 339.433594 135.914062 339.589844 136.101562 339.78125 Z M 136.101562 339.78125 "/>
<path style=" stroke:none;fill-rule:nonzero;fill:rgb(0%,0%,0%);fill-opacity:1;" d="M 127.574219 317.742188 C 126.710938 317.957031 126.21875 318.203125 125.042969 318.988281 C 122.609375 320.613281 121.109375 323.109375 119.640625 327.949219 C 118.332031 332.273438 117.871094 334.75 117.535156 339.433594 C 117.199219 344.082031 117.960938 347.289062 119.945312 349.640625 C 121.097656 350.996094 121.828125 351.367188 123.375 351.367188 C 124.605469 351.367188 125.199219 351.140625 126.050781 350.359375 C 127.070312 349.417969 127.710938 348.25 128.640625 345.609375 C 129 344.589844 129.457031 343.320312 129.648438 342.796875 C 130.199219 341.328125 130.085938 340.441406 129.367188 340.441406 C 128.75 340.441406 128.582031 340.800781 126.890625 345.640625 C 126.332031 347.222656 125.882812 348.027344 125.234375 348.597656 C 124.730469 349.046875 123.808594 349.515625 123.453125 349.515625 C 122.902344 349.515625 122.453125 348.722656 121.972656 346.882812 C 121.421875 344.800781 121.367188 342.3125 121.757812 338.480469 C 121.972656 336.441406 122.183594 335.1875 122.609375 333.609375 C 122.789062 332.902344 122.992188 332.074219 123.058594 331.78125 C 123.117188 331.492188 123.261719 331.085938 123.375 330.886719 C 123.484375 330.683594 123.710938 330.144531 123.855469 329.6875 C 124.011719 329.226562 124.671875 327.367188 125.335938 325.554688 C 127.207031 320.421875 127.765625 319.378906 128.628906 319.378906 C 129.199219 319.378906 130.097656 319.828125 130.714844 320.421875 L 131.238281 320.9375 L 131.195312 322.316406 C 131.140625 323.570312 131.09375 323.804688 130.691406 324.925781 C 130.242188 326.148438 129.535156 327.636719 129.097656 328.285156 C 128.503906 329.160156 129.132812 330.144531 129.984375 329.6875 C 130.566406 329.375 131.84375 326.929688 132.683594 324.535156 C 133.011719 323.582031 133.054688 323.335938 133.054688 322.238281 C 133.066406 321.136719 133.03125 320.9375 132.773438 320.386719 C 132.394531 319.558594 131.96875 319.097656 131.003906 318.449219 C 129.78125 317.609375 128.863281 317.417969 127.574219 317.742188 Z M 123.542969 322.191406 C 123.632812 322.324219 123.292969 323.300781 123.160156 323.300781 C 123.015625 323.300781 122.8125 323.03125 122.8125 322.839844 C 122.8125 322.640625 123.226562 322.070312 123.375 322.070312 C 123.429688 322.070312 123.507812 322.125 123.542969 322.191406 Z M 122.8125 323.683594 C 122.8125 324.050781 122.0625 325.921875 121.402344 327.222656 C 120.808594 328.375 120.660156 328.769531 120.570312 329.464844 C 120.414062 330.605469 120.304688 330.976562 120.113281 330.976562 C 119.910156 330.976562 119.921875 330.671875 120.214844 329.292969 C 120.515625 327.804688 120.898438 326.796875 121.78125 325.003906 C 122.441406 323.683594 122.8125 323.210938 122.8125 323.683594 Z M 122.8125 323.683594 "/>
</g>
</svg>
