<?xml version="1.0" encoding="UTF-8"?>
<svg xmlns="http://www.w3.org/2000/svg" xmlns:xlink="http://www.w3.org/1999/xlink" width="109pt" height="142pt" viewBox="0 0 109 142" version="1.1">
<g id="surface1">
<path style=" stroke:none;fill-rule:nonzero;fill:rgb(0%,0%,0%);fill-opacity:1;" d="M 57.507812 8.460938 C 57.472656 8.503906 57.367188 8.753906 57.265625 9.015625 C 56.824219 10.199219 56.070312 11.792969 55.453125 12.84375 C 55.164062 13.339844 54.378906 14.527344 53.226562 16.195312 C 53.070312 16.433594 52.941406 16.585938 52.894531 16.585938 C 52.773438 16.585938 49.722656 16 49.140625 15.867188 C 47.695312 15.539062 45.964844 14.945312 44.425781 14.253906 C 43.878906 14.007812 43.835938 14.003906 43.71875 14.183594 C 43.667969 14.253906 43.6875 14.316406 43.855469 14.679688 C 44.523438 16.140625 45.117188 17.816406 45.460938 19.21875 C 45.683594 20.125 46.273438 23.238281 46.230469 23.277344 C 46.214844 23.289062 45.898438 23.507812 45.53125 23.753906 C 45.160156 24.003906 44.464844 24.472656 43.976562 24.800781 C 43.496094 25.125 42.832031 25.546875 42.507812 25.734375 C 41.382812 26.394531 39.816406 27.125 38.558594 27.582031 L 38.015625 27.777344 L 38.003906 27.929688 C 37.984375 28.117188 38.019531 28.140625 38.769531 28.417969 C 39.515625 28.691406 40.269531 29.027344 41.171875 29.472656 C 42.46875 30.121094 43.066406 30.488281 45.316406 32.023438 L 46.230469 32.648438 L 46.210938 32.820312 C 46.175781 33.097656 45.644531 35.875 45.527344 36.378906 C 45.210938 37.785156 44.480469 39.894531 43.855469 41.214844 C 43.75 41.4375 43.660156 41.644531 43.660156 41.679688 C 43.660156 41.765625 43.800781 41.875 43.910156 41.875 C 43.957031 41.875 44.113281 41.824219 44.246094 41.753906 C 45.335938 41.203125 47.554688 40.421875 48.933594 40.101562 C 49.972656 39.855469 52.902344 39.3125 52.941406 39.355469 C 53.085938 39.515625 54.976562 42.332031 55.285156 42.839844 C 56.011719 44.054688 56.855469 45.824219 57.28125 47.027344 C 57.449219 47.492188 57.472656 47.542969 57.570312 47.554688 C 57.769531 47.578125 57.828125 47.503906 58.042969 46.949219 C 58.355469 46.113281 58.707031 45.308594 59.140625 44.453125 C 59.84375 43.050781 60.089844 42.652344 61.835938 40.101562 C 62.121094 39.6875 62.355469 39.34375 62.363281 39.339844 C 62.363281 39.335938 62.71875 39.394531 63.144531 39.480469 C 66.484375 40.113281 66.898438 40.210938 68.261719 40.664062 C 69.222656 40.984375 70.234375 41.378906 70.941406 41.707031 C 71.457031 41.953125 71.519531 41.957031 71.597656 41.738281 C 71.628906 41.644531 71.597656 41.542969 71.398438 41.117188 C 70.5625 39.292969 69.976562 37.460938 69.589844 35.5 C 69.414062 34.617188 69.0625 32.742188 69.0625 32.707031 C 69.0625 32.6875 70.984375 31.367188 71.832031 30.808594 C 73.28125 29.855469 75.207031 28.898438 76.828125 28.332031 C 77.191406 28.203125 77.277344 28.15625 77.328125 28.054688 C 77.382812 27.945312 77.378906 27.933594 77.277344 27.847656 C 77.21875 27.796875 77.078125 27.722656 76.964844 27.683594 C 75.335938 27.089844 73.597656 26.257812 72.316406 25.457031 C 71.769531 25.117188 69.117188 23.328125 69.085938 23.28125 C 69.074219 23.253906 69.160156 22.785156 69.589844 20.535156 C 69.675781 20.097656 69.816406 19.4375 69.910156 19.070312 C 70.21875 17.835938 70.910156 15.910156 71.441406 14.777344 C 71.570312 14.511719 71.664062 14.257812 71.652344 14.226562 C 71.636719 14.191406 71.578125 14.132812 71.523438 14.09375 C 71.425781 14.03125 71.394531 14.042969 70.777344 14.316406 C 69.960938 14.683594 69.308594 14.945312 68.550781 15.203125 C 67.144531 15.679688 66.3125 15.886719 64.148438 16.289062 C 63.285156 16.453125 62.539062 16.597656 62.488281 16.609375 C 62.414062 16.625 62.355469 16.5625 62.148438 16.261719 C 62.011719 16.058594 61.574219 15.421875 61.179688 14.847656 C 60.132812 13.316406 59.800781 12.773438 59.175781 11.523438 C 58.707031 10.597656 58.347656 9.773438 58.0625 8.992188 C 57.949219 8.671875 57.851562 8.410156 57.851562 8.402344 C 57.851562 8.351562 57.558594 8.402344 57.507812 8.460938 Z M 57.957031 9.957031 C 58.316406 10.828125 58.96875 12.148438 59.402344 12.910156 C 59.789062 13.582031 60.324219 14.402344 61.28125 15.78125 C 61.640625 16.296875 61.921875 16.71875 61.914062 16.722656 C 61.90625 16.734375 61.675781 16.808594 61.398438 16.898438 C 60.777344 17.09375 60.140625 17.410156 59.613281 17.785156 C 59.136719 18.125 58.300781 18.941406 57.941406 19.417969 L 57.679688 19.761719 L 57.425781 19.4375 C 57.097656 19.019531 56.40625 18.3125 56.027344 18.011719 C 55.375 17.476562 54.738281 17.128906 53.976562 16.886719 C 53.714844 16.804688 53.492188 16.722656 53.472656 16.707031 C 53.457031 16.695312 53.757812 16.222656 54.144531 15.660156 C 55.546875 13.613281 55.890625 13.058594 56.570312 11.703125 C 56.914062 11.015625 57.535156 9.632812 57.621094 9.359375 C 57.636719 9.304688 57.652344 9.265625 57.664062 9.273438 C 57.675781 9.285156 57.804688 9.59375 57.957031 9.957031 Z M 44.675781 14.851562 C 45.136719 15.085938 46.789062 15.679688 47.785156 15.972656 C 48.804688 16.273438 49.191406 16.359375 51.300781 16.75 C 52.050781 16.890625 52.671875 17.007812 52.675781 17.019531 C 52.683594 17.023438 52.59375 17.207031 52.480469 17.421875 C 51.902344 18.519531 51.691406 19.488281 51.738281 20.867188 C 51.753906 21.304688 51.777344 21.777344 51.789062 21.910156 L 51.820312 22.15625 L 51.695312 22.128906 C 51.628906 22.109375 51.109375 22.085938 50.542969 22.074219 C 49.695312 22.054688 49.429688 22.066406 49.050781 22.125 C 48.289062 22.242188 47.5625 22.488281 46.96875 22.835938 C 46.828125 22.917969 46.703125 22.964844 46.683594 22.949219 C 46.667969 22.933594 46.535156 22.292969 46.390625 21.535156 C 46.066406 19.8125 45.964844 19.351562 45.761719 18.585938 C 45.480469 17.5625 44.882812 15.875 44.484375 14.980469 L 44.375 14.738281 L 44.46875 14.769531 C 44.523438 14.78125 44.617188 14.816406 44.675781 14.851562 Z M 70.726562 15.277344 C 70.402344 16.046875 70 17.160156 69.777344 17.890625 C 69.414062 19.09375 69.3125 19.535156 68.894531 21.804688 C 68.777344 22.4375 68.671875 22.964844 68.660156 22.980469 C 68.648438 23 68.421875 22.902344 68.152344 22.769531 C 67.605469 22.488281 66.9375 22.261719 66.363281 22.15625 C 65.925781 22.078125 64.472656 22.050781 63.859375 22.121094 L 63.507812 22.15625 L 63.535156 21.992188 C 63.546875 21.90625 63.574219 21.433594 63.585938 20.949219 C 63.632812 19.429688 63.464844 18.585938 62.898438 17.488281 C 62.773438 17.246094 62.675781 17.035156 62.683594 17.027344 C 62.691406 17.019531 63.183594 16.921875 63.773438 16.8125 C 65.976562 16.40625 66.707031 16.242188 67.730469 15.9375 C 68.632812 15.664062 70.320312 15.042969 70.734375 14.832031 C 70.816406 14.785156 70.894531 14.769531 70.898438 14.789062 C 70.910156 14.8125 70.832031 15.035156 70.726562 15.277344 Z M 53.820312 17.304688 C 54.730469 17.589844 55.460938 18.046875 56.261719 18.839844 C 56.820312 19.394531 57.390625 20.0625 57.390625 20.160156 C 57.390625 20.191406 57.3125 20.351562 57.214844 20.523438 C 56.660156 21.496094 56.273438 22.761719 56.191406 23.902344 L 56.160156 24.269531 L 55.820312 23.976562 C 54.941406 23.21875 53.742188 22.613281 52.476562 22.28125 C 52.339844 22.246094 52.328125 22.230469 52.277344 21.996094 C 52.242188 21.851562 52.207031 21.363281 52.195312 20.835938 C 52.179688 20.101562 52.1875 19.847656 52.246094 19.5 C 52.375 18.714844 52.585938 18.132812 52.992188 17.425781 C 53.191406 17.078125 53.132812 17.085938 53.820312 17.304688 Z M 62.550781 17.8125 C 62.851562 18.429688 63.015625 18.941406 63.101562 19.53125 C 63.207031 20.277344 63.144531 22.0625 63 22.242188 C 62.972656 22.273438 62.773438 22.351562 62.554688 22.414062 C 61.441406 22.738281 60.375 23.3125 59.484375 24.074219 C 59.359375 24.183594 59.238281 24.273438 59.226562 24.273438 C 59.207031 24.273438 59.195312 24.136719 59.195312 23.972656 C 59.191406 22.976562 58.753906 21.53125 58.125 20.46875 C 58.046875 20.328125 57.976562 20.191406 57.976562 20.15625 C 57.976562 20.050781 58.582031 19.316406 59.046875 18.863281 C 59.914062 18.015625 60.679688 17.5625 61.816406 17.230469 C 62.054688 17.164062 62.171875 17.148438 62.210938 17.175781 C 62.238281 17.203125 62.390625 17.484375 62.550781 17.8125 Z M 58.046875 21.289062 C 58.558594 22.367188 58.8125 23.535156 58.746094 24.53125 C 58.71875 24.855469 58.710938 24.882812 58.492188 25.207031 C 58.195312 25.648438 57.960938 26.125 57.824219 26.574219 C 57.707031 26.953125 57.660156 27.046875 57.625 26.949219 C 57.351562 26.078125 57.160156 25.632812 56.824219 25.113281 L 56.621094 24.804688 L 56.644531 24.109375 C 56.671875 23.324219 56.761719 22.851562 57.011719 22.101562 C 57.183594 21.582031 57.515625 20.839844 57.628906 20.714844 C 57.691406 20.644531 57.699219 20.644531 57.757812 20.726562 C 57.789062 20.773438 57.917969 21.027344 58.046875 21.289062 Z M 51.511719 22.558594 C 51.933594 22.628906 51.976562 22.640625 51.976562 22.710938 C 51.976562 22.742188 52.058594 23.023438 52.160156 23.332031 C 52.480469 24.304688 53.097656 25.414062 53.695312 26.09375 L 53.953125 26.386719 L 53.730469 26.417969 C 53.605469 26.429688 53.320312 26.460938 53.09375 26.488281 C 52.164062 26.59375 51.21875 26.90625 50.246094 27.445312 C 49.769531 27.707031 49.835938 27.714844 49.289062 27.289062 C 48.34375 26.5625 47.519531 25.535156 47.136719 24.601562 C 47.023438 24.324219 46.761719 23.472656 46.78125 23.457031 C 46.898438 23.375 47.464844 23.070312 47.675781 22.980469 C 48.144531 22.769531 48.84375 22.585938 49.496094 22.503906 C 49.753906 22.472656 51.226562 22.511719 51.511719 22.558594 Z M 66.164062 22.582031 C 66.386719 22.617188 66.734375 22.691406 66.941406 22.75 C 67.328125 22.859375 68.234375 23.277344 68.4375 23.4375 L 68.554688 23.523438 L 68.472656 23.808594 C 68.183594 24.84375 67.773438 25.582031 67.027344 26.394531 C 66.6875 26.765625 65.960938 27.40625 65.664062 27.605469 L 65.496094 27.714844 L 64.8125 27.375 C 64.433594 27.1875 63.925781 26.972656 63.679688 26.890625 C 63.125 26.707031 62.332031 26.550781 61.808594 26.507812 C 61.597656 26.496094 61.421875 26.464844 61.421875 26.449219 C 61.421875 26.4375 61.535156 26.292969 61.671875 26.132812 C 62.382812 25.324219 62.890625 24.371094 63.246094 23.210938 C 63.332031 22.933594 63.414062 22.691406 63.429688 22.675781 C 63.460938 22.648438 63.984375 22.554688 64.421875 22.507812 C 64.703125 22.472656 65.742188 22.519531 66.164062 22.582031 Z M 53.09375 22.941406 C 54.273438 23.339844 55.40625 24.0625 56.007812 24.789062 C 56.175781 24.992188 56.210938 25.066406 56.273438 25.382812 C 56.375 25.886719 56.519531 26.3125 56.765625 26.824219 C 56.882812 27.054688 56.96875 27.257812 56.960938 27.265625 C 56.953125 27.273438 56.730469 27.171875 56.464844 27.039062 C 55.945312 26.789062 55.433594 26.609375 54.996094 26.527344 C 54.726562 26.484375 54.726562 26.480469 54.285156 26.035156 C 53.503906 25.25 52.898438 24.214844 52.527344 23.027344 C 52.421875 22.710938 52.414062 22.710938 53.09375 22.941406 Z M 62.738281 23.347656 C 62.542969 23.945312 62.109375 24.816406 61.773438 25.28125 C 61.488281 25.679688 60.828125 26.386719 60.660156 26.46875 C 60.597656 26.503906 60.363281 26.570312 60.136719 26.621094 C 59.621094 26.730469 59.242188 26.863281 58.757812 27.105469 C 58.558594 27.207031 58.382812 27.28125 58.367188 27.273438 C 58.359375 27.261719 58.449219 27.066406 58.558594 26.84375 C 58.800781 26.378906 58.984375 25.875 59.089844 25.398438 C 59.179688 24.992188 59.328125 24.789062 59.878906 24.328125 C 60.378906 23.914062 60.859375 23.609375 61.484375 23.3125 C 62.039062 23.042969 62.859375 22.753906 62.882812 22.820312 C 62.894531 22.84375 62.824219 23.082031 62.738281 23.347656 Z M 46.539062 24.242188 C 46.628906 24.527344 46.800781 24.960938 46.925781 25.199219 C 47.347656 26.027344 48.179688 27.003906 49.023438 27.652344 L 49.414062 27.945312 L 49.023438 28.261719 C 48.804688 28.429688 48.445312 28.757812 48.214844 28.984375 C 47.324219 29.882812 46.828125 30.667969 46.496094 31.726562 C 46.4375 31.914062 46.378906 32.097656 46.371094 32.128906 C 46.355469 32.164062 46.089844 32.003906 45.5625 31.652344 C 43.21875 30.058594 42.863281 29.839844 41.625 29.203125 C 40.742188 28.753906 40.113281 28.464844 39.359375 28.164062 L 38.859375 27.964844 L 39.023438 27.890625 C 39.117188 27.855469 39.324219 27.765625 39.492188 27.707031 C 40.078125 27.46875 41.046875 27.023438 41.605469 26.734375 C 42.820312 26.101562 43.441406 25.722656 45.109375 24.574219 C 45.78125 24.113281 46.335938 23.734375 46.347656 23.730469 C 46.359375 23.730469 46.445312 23.960938 46.539062 24.242188 Z M 69.839844 24.34375 C 71.054688 25.175781 71.875 25.714844 72.296875 25.96875 C 73.261719 26.554688 74.714844 27.273438 75.882812 27.746094 C 76.1875 27.863281 76.433594 27.96875 76.441406 27.976562 C 76.445312 27.980469 76.15625 28.105469 75.789062 28.253906 C 74.90625 28.609375 73.140625 29.484375 72.328125 29.972656 C 71.964844 30.191406 71.078125 30.773438 70.351562 31.265625 C 69.632812 31.761719 69.019531 32.171875 68.996094 32.191406 C 68.96875 32.207031 68.882812 32.019531 68.777344 31.691406 C 68.476562 30.792969 68.054688 30.066406 67.40625 29.335938 C 67.0625 28.945312 66.425781 28.359375 66.113281 28.152344 C 66.003906 28.074219 65.921875 28.003906 65.925781 27.992188 C 65.929688 27.976562 66.082031 27.847656 66.269531 27.707031 C 66.730469 27.34375 67.558594 26.503906 67.894531 26.054688 C 68.25 25.578125 68.59375 24.894531 68.796875 24.265625 C 68.882812 23.996094 68.96875 23.773438 68.980469 23.773438 C 68.996094 23.773438 69.382812 24.03125 69.839844 24.34375 Z M 54.847656 27.113281 C 55.257812 27.394531 56.015625 27.753906 56.394531 27.847656 C 56.550781 27.890625 56.675781 27.9375 56.675781 27.953125 C 56.675781 27.96875 56.46875 28.050781 56.214844 28.132812 C 55.707031 28.300781 55.160156 28.554688 54.75 28.824219 L 54.480469 29 L 54.019531 29 C 53.214844 29 52.335938 28.832031 51.484375 28.515625 C 51.046875 28.355469 50.355469 28.027344 50.320312 27.960938 C 50.292969 27.917969 51.121094 27.488281 51.511719 27.335938 C 52.015625 27.144531 52.828125 26.945312 53.296875 26.894531 C 53.386719 26.886719 53.699219 26.882812 53.992188 26.886719 L 54.511719 26.894531 Z M 62.261719 27.015625 C 62.824219 27.097656 63.421875 27.261719 63.980469 27.484375 C 64.472656 27.675781 65.03125 27.949219 65.03125 28 C 65.03125 28.058594 63.945312 28.550781 63.484375 28.707031 C 62.703125 28.96875 62.25 29.042969 61.46875 29.042969 L 60.789062 29.042969 L 60.441406 28.808594 C 60.007812 28.515625 59.492188 28.265625 59.027344 28.121094 C 58.828125 28.058594 58.675781 27.992188 58.679688 27.976562 C 58.683594 27.953125 58.902344 27.871094 59.164062 27.785156 C 59.691406 27.613281 60.078125 27.433594 60.519531 27.144531 L 60.8125 26.953125 L 61.335938 26.953125 C 61.628906 26.953125 62.042969 26.980469 62.261719 27.015625 Z M 50.039062 28.332031 C 50.925781 28.875 52.230469 29.296875 53.421875 29.421875 C 53.679688 29.449219 53.894531 29.476562 53.898438 29.480469 C 53.90625 29.488281 53.78125 29.652344 53.609375 29.839844 C 52.898438 30.664062 52.335938 31.738281 52.019531 32.890625 C 51.972656 33.058594 51.90625 33.21875 51.882812 33.25 C 51.785156 33.339844 51.289062 33.398438 50.460938 33.417969 C 49.527344 33.445312 48.953125 33.371094 48.242188 33.140625 C 47.820312 33 46.964844 32.59375 46.835938 32.472656 C 46.761719 32.398438 46.765625 32.386719 46.894531 31.964844 C 47.332031 30.566406 48.0625 29.574219 49.453125 28.488281 C 49.648438 28.335938 49.816406 28.210938 49.820312 28.207031 C 49.828125 28.207031 49.925781 28.265625 50.039062 28.332031 Z M 65.761719 28.445312 C 66.722656 29.125 67.664062 30.203125 68.066406 31.089844 C 68.261719 31.523438 68.484375 32.195312 68.488281 32.378906 L 68.496094 32.53125 L 67.972656 32.792969 C 67.40625 33.082031 66.851562 33.269531 66.273438 33.367188 C 65.84375 33.441406 64.347656 33.457031 63.875 33.390625 C 63.34375 33.3125 63.363281 33.328125 63.308594 33.085938 C 63.078125 32.101562 62.328125 30.65625 61.628906 29.859375 C 61.492188 29.703125 61.378906 29.558594 61.378906 29.542969 C 61.378906 29.527344 61.582031 29.5 61.832031 29.488281 C 62.785156 29.4375 63.722656 29.171875 64.746094 28.648438 C 65.121094 28.457031 65.457031 28.296875 65.488281 28.292969 C 65.519531 28.292969 65.644531 28.355469 65.761719 28.445312 Z M 56.960938 28.695312 C 56.953125 28.714844 56.847656 28.925781 56.726562 29.164062 C 56.480469 29.636719 56.296875 30.148438 56.210938 30.609375 C 56.15625 30.898438 56.152344 30.90625 55.777344 31.28125 C 55.140625 31.921875 54.421875 32.394531 53.519531 32.78125 C 53.015625 32.992188 52.488281 33.160156 52.449219 33.121094 C 52.390625 33.070312 52.765625 32.035156 53.027344 31.503906 C 53.472656 30.617188 54.453125 29.457031 54.8125 29.398438 C 55.453125 29.289062 56.515625 28.925781 56.777344 28.730469 C 56.867188 28.660156 56.988281 28.644531 56.960938 28.695312 Z M 58.820312 28.886719 C 59.273438 29.117188 59.902344 29.335938 60.347656 29.417969 C 60.59375 29.464844 60.613281 29.480469 61.042969 29.910156 C 61.550781 30.421875 61.925781 30.960938 62.296875 31.695312 C 62.554688 32.207031 62.890625 33.113281 62.839844 33.164062 C 62.78125 33.21875 61.816406 32.871094 61.257812 32.589844 C 60.941406 32.433594 60.507812 32.175781 60.300781 32.027344 C 59.90625 31.75 59.3125 31.199219 59.183594 31.007812 C 59.144531 30.949219 59.074219 30.714844 59.027344 30.488281 C 58.910156 29.945312 58.726562 29.4375 58.503906 29.007812 C 58.402344 28.820312 58.335938 28.667969 58.351562 28.667969 C 58.367188 28.667969 58.582031 28.765625 58.820312 28.886719 Z M 57.804688 29.363281 C 57.953125 29.832031 58.1875 30.335938 58.492188 30.832031 L 58.703125 31.175781 L 58.679688 31.792969 C 58.652344 32.515625 58.546875 33.117188 58.308594 33.824219 C 58.117188 34.414062 57.703125 35.285156 57.628906 35.265625 C 57.558594 35.238281 57.261719 34.664062 57.050781 34.148438 C 56.714844 33.304688 56.515625 32.230469 56.558594 31.449219 C 56.574219 31.113281 56.578125 31.101562 56.8125 30.746094 C 57.105469 30.3125 57.394531 29.714844 57.519531 29.28125 C 57.574219 29.105469 57.628906 28.957031 57.644531 28.957031 C 57.664062 28.957031 57.734375 29.140625 57.804688 29.363281 Z M 56.132812 32.183594 C 56.179688 32.773438 56.332031 33.492188 56.515625 34.011719 C 56.660156 34.421875 57.03125 35.226562 57.222656 35.527344 C 57.289062 35.640625 57.347656 35.746094 57.347656 35.769531 C 57.347656 35.855469 56.800781 36.539062 56.410156 36.941406 C 55.773438 37.582031 55.128906 38.058594 54.449219 38.375 C 54.132812 38.519531 53.421875 38.746094 53.238281 38.753906 L 53.09375 38.761719 L 52.832031 38.265625 C 52.546875 37.714844 52.351562 37.167969 52.238281 36.589844 C 52.152344 36.121094 52.148438 34.570312 52.234375 34.019531 C 52.285156 33.703125 52.296875 33.667969 52.394531 33.636719 C 53.539062 33.292969 54.226562 32.996094 54.953125 32.519531 C 55.316406 32.289062 55.832031 31.886719 55.980469 31.722656 C 56.027344 31.671875 56.066406 31.640625 56.070312 31.648438 C 56.082031 31.65625 56.105469 31.894531 56.132812 32.183594 Z M 59.703125 32.132812 C 60.453125 32.761719 61.597656 33.324219 62.792969 33.636719 C 63 33.691406 63.023438 33.753906 63.097656 34.332031 C 63.210938 35.226562 63.136719 36.378906 62.90625 37.179688 C 62.804688 37.546875 62.386719 38.464844 62.21875 38.699219 L 62.132812 38.820312 L 61.839844 38.738281 C 61.058594 38.523438 60.441406 38.234375 59.863281 37.816406 C 59.429688 37.5 58.507812 36.585938 58.160156 36.121094 L 57.898438 35.777344 L 58.109375 35.410156 C 58.667969 34.414062 59.039062 33.191406 59.132812 32.023438 L 59.164062 31.675781 L 59.296875 31.792969 C 59.371094 31.855469 59.558594 32.003906 59.703125 32.132812 Z M 47.179688 33.179688 C 47.726562 33.453125 48.25 33.640625 48.742188 33.742188 C 49.539062 33.902344 50.441406 33.933594 51.28125 33.828125 C 51.554688 33.796875 51.785156 33.777344 51.792969 33.78125 C 51.800781 33.792969 51.785156 33.976562 51.761719 34.195312 C 51.730469 34.445312 51.722656 34.96875 51.730469 35.53125 C 51.761719 36.835938 51.882812 37.367188 52.375 38.367188 C 52.519531 38.65625 52.628906 38.894531 52.621094 38.902344 C 52.605469 38.921875 52.179688 39.003906 50.589844 39.304688 C 49.097656 39.585938 48.21875 39.800781 47.1875 40.128906 C 46.367188 40.398438 45.191406 40.835938 44.683594 41.066406 C 44.515625 41.140625 44.375 41.195312 44.375 41.183594 C 44.375 41.175781 44.476562 40.921875 44.601562 40.632812 C 45.332031 38.894531 45.835938 37.242188 46.179688 35.417969 C 46.578125 33.324219 46.652344 32.929688 46.664062 32.929688 C 46.671875 32.929688 46.902344 33.042969 47.179688 33.179688 Z M 68.65625 33.042969 C 68.671875 33.085938 68.785156 33.660156 68.910156 34.332031 C 69.308594 36.445312 69.46875 37.136719 69.824219 38.261719 C 70.050781 38.976562 70.480469 40.148438 70.71875 40.695312 C 70.828125 40.9375 70.902344 41.140625 70.890625 41.152344 C 70.878906 41.164062 70.539062 41.039062 70.132812 40.878906 C 68.082031 40.046875 66.847656 39.707031 63.957031 39.179688 C 63.246094 39.046875 62.65625 38.933594 62.648438 38.929688 C 62.636719 38.921875 62.730469 38.730469 62.847656 38.496094 C 62.960938 38.261719 63.113281 37.933594 63.179688 37.769531 C 63.546875 36.835938 63.6875 35.527344 63.542969 34.308594 C 63.511719 34.046875 63.488281 33.824219 63.5 33.816406 C 63.507812 33.808594 63.734375 33.824219 64.003906 33.855469 C 64.308594 33.882812 64.816406 33.898438 65.320312 33.882812 C 66.011719 33.863281 66.222656 33.839844 66.648438 33.746094 C 67.21875 33.621094 67.851562 33.382812 68.285156 33.140625 C 68.625 32.949219 68.628906 32.949219 68.65625 33.042969 Z M 57.957031 36.574219 C 58.328125 37.046875 59.199219 37.894531 59.652344 38.214844 C 60.140625 38.5625 60.769531 38.871094 61.363281 39.058594 C 61.636719 39.148438 61.867188 39.222656 61.878906 39.226562 C 61.886719 39.234375 61.535156 39.761719 61.09375 40.402344 C 60.082031 41.875 59.738281 42.402344 59.390625 43.011719 C 58.859375 43.941406 58.136719 45.445312 57.789062 46.339844 C 57.683594 46.605469 57.601562 46.726562 57.601562 46.605469 C 57.601562 46.503906 57.007812 45.160156 56.613281 44.367188 C 55.925781 42.972656 55.65625 42.527344 54.324219 40.582031 C 53.894531 39.949219 53.507812 39.382812 53.46875 39.320312 L 53.398438 39.210938 L 53.871094 39.058594 C 54.691406 38.804688 55.382812 38.433594 56.046875 37.878906 C 56.460938 37.542969 57.207031 36.765625 57.4375 36.445312 C 57.535156 36.308594 57.625 36.191406 57.636719 36.195312 C 57.652344 36.195312 57.796875 36.367188 57.957031 36.574219 Z M 57.957031 36.574219 "/>
<path style=" stroke:none;fill-rule:nonzero;fill:rgb(0%,0%,0%);fill-opacity:1;" d="M 21.328125 66.617188 L 21.328125 77.835938 L 27.492188 77.820312 C 33.570312 77.804688 33.652344 77.804688 34.027344 77.71875 C 35.824219 77.304688 36.996094 76.074219 37.324219 74.238281 C 37.371094 73.996094 37.382812 73.382812 37.382812 71.601562 C 37.382812 69.035156 37.378906 68.964844 37.109375 68.320312 C 36.789062 67.550781 36.128906 66.855469 35.359375 66.464844 L 35.175781 66.375 L 35.539062 66.117188 C 36.167969 65.671875 36.617188 65.113281 36.863281 64.480469 C 37.121094 63.816406 37.128906 63.71875 37.132812 61.445312 C 37.132812 59.183594 37.117188 58.957031 36.898438 58.296875 C 36.449219 56.921875 35.410156 55.949219 33.984375 55.5625 L 33.566406 55.445312 L 27.445312 55.425781 L 21.328125 55.402344 Z M 33.628906 56.109375 C 35.136719 56.464844 36.105469 57.445312 36.425781 58.9375 C 36.496094 59.253906 36.503906 59.511719 36.503906 61.359375 C 36.503906 63.222656 36.496094 63.460938 36.425781 63.761719 C 36.261719 64.441406 35.949219 65.011719 35.46875 65.5 C 35.222656 65.753906 34.726562 66.101562 34.476562 66.207031 C 34.261719 66.292969 34.296875 66.421875 34.5625 66.550781 C 35.386719 66.929688 36.109375 67.632812 36.457031 68.390625 C 36.746094 69.023438 36.746094 69.019531 36.769531 71.3125 C 36.777344 72.660156 36.769531 73.535156 36.738281 73.824219 C 36.558594 75.539062 35.613281 76.65625 33.992188 77.085938 L 33.648438 77.179688 L 27.804688 77.191406 L 21.957031 77.210938 L 21.957031 56.003906 L 27.636719 56.019531 C 32.910156 56.035156 33.332031 56.039062 33.628906 56.109375 Z M 33.628906 56.109375 "/>
<path style=" stroke:none;fill-rule:nonzero;fill:rgb(0%,0%,0%);fill-opacity:1;" d="M 23.257812 66.625 L 23.257812 76.035156 L 27.867188 76.035156 C 32.449219 76.035156 32.917969 76.023438 33.4375 75.886719 C 34.164062 75.699219 34.777344 75.210938 35.089844 74.570312 C 35.421875 73.902344 35.410156 73.964844 35.410156 71.332031 L 35.410156 68.988281 L 35.296875 68.65625 C 34.925781 67.566406 33.996094 66.703125 32.914062 66.4375 L 32.621094 66.371094 L 33.019531 66.230469 C 33.570312 66.042969 33.84375 65.871094 34.277344 65.4375 C 34.6875 65.035156 34.875 64.730469 35.058594 64.183594 L 35.160156 63.886719 L 35.160156 61.714844 C 35.160156 59.269531 35.164062 59.300781 34.84375 58.652344 C 34.5 57.957031 33.84375 57.476562 33 57.304688 C 32.617188 57.226562 32.386719 57.21875 27.929688 57.21875 L 23.257812 57.21875 Z M 32.929688 57.933594 C 33.757812 58.140625 34.277344 58.664062 34.484375 59.484375 C 34.542969 59.714844 34.550781 60.046875 34.550781 61.746094 L 34.550781 63.746094 L 34.4375 64.085938 C 34.117188 65.050781 33.167969 65.753906 31.886719 65.980469 C 31.574219 66.03125 30.925781 66.042969 27.703125 66.042969 L 23.886719 66.042969 L 23.886719 57.847656 L 28.246094 57.847656 C 32.453125 57.847656 32.621094 57.851562 32.929688 57.933594 Z M 31.738281 66.710938 C 32.25 66.777344 32.699219 66.914062 33.144531 67.128906 C 33.988281 67.539062 34.539062 68.171875 34.742188 68.960938 C 34.835938 69.335938 34.8125 73.570312 34.710938 73.859375 C 34.4375 74.644531 33.972656 75.085938 33.1875 75.3125 C 32.957031 75.378906 32.570312 75.386719 28.414062 75.398438 L 23.886719 75.410156 L 23.886719 66.667969 L 27.660156 66.667969 C 29.835938 66.667969 31.558594 66.691406 31.738281 66.710938 Z M 31.738281 66.710938 "/>
<path style=" stroke:none;fill-rule:nonzero;fill:rgb(0%,0%,0%);fill-opacity:1;" d="M 25.21875 58.957031 C 25.203125 58.976562 25.191406 60.34375 25.191406 61.996094 L 25.191406 64.996094 L 28.539062 64.996094 C 32.226562 64.996094 32.277344 64.992188 32.667969 64.746094 C 32.929688 64.574219 33.101562 64.308594 33.1875 63.933594 C 33.246094 63.679688 33.253906 63.367188 33.242188 61.882812 C 33.226562 60.234375 33.222656 60.113281 33.144531 59.929688 C 32.949219 59.46875 32.640625 59.179688 32.179688 59.027344 C 31.988281 58.964844 31.621094 58.953125 28.613281 58.941406 C 26.757812 58.9375 25.234375 58.941406 25.21875 58.957031 Z M 32.074219 59.671875 C 32.179688 59.71875 32.3125 59.8125 32.375 59.878906 C 32.613281 60.128906 32.621094 60.214844 32.621094 62.015625 C 32.621094 63.070312 32.605469 63.730469 32.574219 63.839844 C 32.519531 64.066406 32.324219 64.261719 32.09375 64.324219 C 31.980469 64.351562 30.9375 64.371094 28.875 64.371094 L 25.820312 64.371094 L 25.820312 59.558594 L 28.855469 59.570312 C 31.84375 59.585938 31.890625 59.585938 32.074219 59.671875 Z M 32.074219 59.671875 "/>
<path style=" stroke:none;fill-rule:nonzero;fill:rgb(0%,0%,0%);fill-opacity:1;" d="M 25.21875 67.738281 C 25.203125 67.757812 25.191406 69.238281 25.191406 71.027344 L 25.191406 74.28125 L 28.75 74.269531 L 32.304688 74.257812 L 32.558594 74.15625 C 32.898438 74.019531 33.242188 73.675781 33.378906 73.339844 L 33.480469 73.085938 L 33.480469 68.820312 L 33.371094 68.59375 C 33.222656 68.28125 33.089844 68.128906 32.835938 67.992188 C 32.382812 67.742188 32.367188 67.742188 28.652344 67.726562 C 26.78125 67.714844 25.238281 67.722656 25.21875 67.738281 Z M 32.324219 68.4375 C 32.566406 68.535156 32.730469 68.6875 32.808594 68.902344 C 32.867188 69.046875 32.871094 69.339844 32.863281 71.042969 L 32.851562 73.011719 L 32.726562 73.210938 C 32.636719 73.359375 32.535156 73.445312 32.386719 73.519531 L 32.183594 73.628906 L 29 73.640625 L 25.820312 73.652344 L 25.820312 68.339844 L 28.980469 68.351562 C 31.875 68.363281 32.152344 68.371094 32.324219 68.4375 Z M 32.324219 68.4375 "/>
<path style=" stroke:none;fill-rule:nonzero;fill:rgb(0%,0%,0%);fill-opacity:1;" d="M 41.621094 55.417969 C 41.613281 55.429688 41.605469 60.476562 41.605469 66.632812 L 41.605469 77.832031 L 55.542969 77.832031 L 55.542969 73.609375 L 50.832031 73.601562 L 46.117188 73.585938 L 46.105469 64.496094 L 46.09375 55.402344 L 43.867188 55.402344 C 42.640625 55.402344 41.628906 55.410156 41.621094 55.417969 Z M 45.46875 65.101562 L 45.46875 74.195312 L 54.914062 74.195312 L 54.914062 77.203125 L 42.234375 77.203125 L 42.234375 56.007812 L 45.46875 56.007812 Z M 45.46875 65.101562 "/>
<path style=" stroke:none;fill-rule:nonzero;fill:rgb(0%,0%,0%);fill-opacity:1;" d="M 43.542969 66.613281 L 43.558594 76.015625 L 48.585938 76.027344 L 53.609375 76.035156 L 53.609375 75.40625 L 44.164062 75.40625 L 44.164062 57.21875 L 43.535156 57.21875 Z M 43.542969 66.613281 "/>
<path style=" stroke:none;fill-rule:nonzero;fill:rgb(0%,0%,0%);fill-opacity:1;" d="M 58.621094 55.445312 C 58.609375 55.46875 58.609375 59.703125 58.621094 64.851562 L 58.632812 74.214844 L 58.742188 74.664062 C 59.207031 76.523438 60.554688 77.691406 62.492188 77.917969 C 62.738281 77.949219 64.269531 77.957031 66.921875 77.945312 C 71.28125 77.929688 71.144531 77.9375 71.832031 77.707031 C 73.332031 77.214844 74.378906 75.964844 74.628906 74.363281 C 74.683594 74.019531 74.6875 72.738281 74.675781 64.691406 L 74.664062 55.425781 L 70.21875 55.425781 L 70.195312 64.210938 L 70.175781 73.003906 L 70.070312 73.210938 C 69.929688 73.492188 69.703125 73.640625 69.351562 73.699219 C 69.183594 73.722656 68.09375 73.734375 66.480469 73.726562 C 64.078125 73.714844 63.867188 73.710938 63.707031 73.636719 C 63.511719 73.550781 63.332031 73.386719 63.234375 73.210938 C 63.164062 73.09375 63.160156 72.382812 63.140625 64.253906 L 63.121094 55.425781 L 60.878906 55.410156 C 59.363281 55.40625 58.632812 55.414062 58.621094 55.445312 Z M 62.511719 64.597656 L 62.53125 73.171875 L 62.628906 73.40625 C 62.765625 73.738281 63.007812 74 63.34375 74.164062 L 63.625 74.300781 L 66.542969 74.3125 C 69.148438 74.324219 69.488281 74.316406 69.71875 74.257812 C 70.179688 74.136719 70.519531 73.824219 70.707031 73.367188 L 70.804688 73.128906 L 70.816406 64.566406 L 70.824219 56.007812 L 74.058594 56.007812 L 74.050781 65.171875 L 74.035156 74.339844 L 73.917969 74.71875 C 73.582031 75.785156 73.019531 76.46875 72.105469 76.914062 C 71.875 77.023438 71.515625 77.164062 71.308594 77.214844 L 70.929688 77.308594 L 62.363281 77.308594 L 61.949219 77.195312 C 60.859375 76.898438 60.121094 76.292969 59.65625 75.34375 C 59.429688 74.871094 59.34375 74.578125 59.28125 74.070312 C 59.234375 73.671875 59.214844 56.085938 59.265625 56.039062 C 59.285156 56.019531 60.011719 56.011719 60.890625 56.015625 L 62.492188 56.03125 Z M 62.511719 64.597656 "/>
<path style=" stroke:none;fill-rule:nonzero;fill:rgb(0%,0%,0%);fill-opacity:1;" d="M 60.59375 65.550781 C 60.601562 73.429688 60.605469 73.894531 60.675781 74.132812 C 60.964844 75.089844 61.667969 75.785156 62.574219 76.015625 C 63.113281 76.152344 63.59375 76.164062 66.964844 76.148438 C 70.726562 76.132812 70.554688 76.144531 71.28125 75.796875 C 71.976562 75.464844 72.417969 74.910156 72.652344 74.070312 C 72.730469 73.808594 72.734375 73.40625 72.746094 65.507812 L 72.753906 57.21875 L 72.125 57.21875 L 72.125 65.359375 C 72.125 74.363281 72.140625 73.804688 71.855469 74.386719 C 71.601562 74.902344 71.136719 75.261719 70.480469 75.441406 C 70.238281 75.503906 69.910156 75.511719 66.667969 75.511719 C 63.40625 75.511719 63.097656 75.507812 62.847656 75.4375 C 62.425781 75.324219 62.066406 75.128906 61.820312 74.882812 C 61.554688 74.613281 61.40625 74.339844 61.28125 73.914062 L 61.1875 73.585938 L 61.175781 65.414062 L 61.167969 57.242188 L 60.875 57.230469 L 60.582031 57.214844 Z M 60.59375 65.550781 "/>
<path style=" stroke:none;fill-rule:nonzero;fill:rgb(0%,0%,0%);fill-opacity:1;" d="M 79.320312 55.417969 C 79.3125 55.429688 79.304688 60.476562 79.304688 66.632812 L 79.304688 77.832031 L 94.039062 77.832031 L 94.039062 73.609375 L 88.929688 73.601562 L 83.816406 73.585938 L 83.816406 68.488281 L 87.945312 68.476562 L 92.066406 68.464844 L 92.066406 64.246094 L 83.796875 64.246094 L 83.796875 59.644531 L 94.039062 59.644531 L 94.03125 57.535156 L 94.019531 55.425781 L 86.679688 55.410156 C 82.644531 55.40625 79.332031 55.410156 79.320312 55.417969 Z M 93.402344 57.523438 L 93.410156 59.015625 L 83.164062 59.015625 L 83.164062 64.871094 L 91.480469 64.871094 L 91.480469 67.839844 L 87.335938 67.847656 L 83.1875 67.863281 L 83.175781 71.027344 L 83.164062 74.195312 L 88.277344 74.203125 L 93.390625 74.214844 L 93.402344 75.707031 L 93.410156 77.203125 L 79.933594 77.203125 L 79.933594 56.007812 L 86.664062 56.015625 L 93.390625 56.03125 Z M 93.402344 57.523438 "/>
<path style=" stroke:none;fill-rule:nonzero;fill:rgb(0%,0%,0%);fill-opacity:1;" d="M 81.234375 66.625 L 81.234375 76.035156 L 92.066406 76.035156 L 92.066406 75.40625 L 81.867188 75.40625 L 81.867188 66.667969 L 90.136719 66.667969 L 90.136719 66.042969 L 81.867188 66.042969 L 81.867188 57.847656 L 92.066406 57.847656 L 92.066406 57.21875 L 81.234375 57.21875 Z M 81.234375 66.625 "/>
<path style=" stroke:none;fill-rule:nonzero;fill:rgb(0%,0%,0%);fill-opacity:1;" d="M 68.660156 84.484375 C 68.035156 84.5625 67.308594 84.828125 66.769531 85.171875 C 66.433594 85.382812 65.90625 85.90625 65.679688 86.238281 C 65.296875 86.816406 65.039062 87.511719 64.949219 88.222656 C 64.917969 88.480469 64.90625 90.808594 64.90625 95.808594 C 64.90625 103.550781 64.902344 103.417969 65.113281 104.132812 C 65.589844 105.710938 66.878906 106.804688 68.558594 107.054688 C 68.78125 107.089844 70.152344 107.097656 73.257812 107.089844 L 77.648438 107.078125 L 77.980469 106.980469 C 79.433594 106.574219 80.453125 105.667969 80.917969 104.375 C 81.199219 103.59375 81.191406 103.671875 81.191406 98.8125 L 81.191406 94.429688 L 72.585938 94.429688 L 72.585938 98.484375 L 76.707031 98.484375 L 76.691406 100.335938 L 76.679688 102.1875 L 76.574219 102.394531 C 76.496094 102.542969 76.410156 102.640625 76.261719 102.726562 L 76.058594 102.855469 L 73.199219 102.867188 C 71.21875 102.875 70.273438 102.867188 70.128906 102.832031 C 69.847656 102.773438 69.597656 102.5625 69.492188 102.296875 C 69.421875 102.109375 69.417969 101.804688 69.417969 95.761719 L 69.417969 89.429688 L 69.542969 89.183594 C 69.65625 88.964844 69.703125 88.917969 69.917969 88.804688 L 70.171875 88.683594 L 72.910156 88.667969 C 74.691406 88.660156 75.738281 88.671875 75.894531 88.703125 C 76.195312 88.757812 76.4375 88.917969 76.578125 89.164062 C 76.679688 89.351562 76.679688 89.359375 76.691406 90.570312 L 76.707031 91.796875 L 81.199219 91.796875 L 81.183594 89.902344 L 81.167969 88.011719 L 81.054688 87.59375 C 80.609375 85.996094 79.523438 84.953125 77.886719 84.554688 C 77.523438 84.46875 77.453125 84.464844 73.238281 84.453125 C 70.882812 84.449219 68.824219 84.464844 68.660156 84.484375 Z M 77.835938 85.183594 C 78.3125 85.304688 78.96875 85.632812 79.308594 85.914062 C 79.761719 86.289062 80.152344 86.863281 80.355469 87.445312 C 80.539062 88 80.566406 88.25 80.566406 89.75 L 80.566406 91.167969 L 77.339844 91.167969 L 77.324219 90.214844 C 77.308594 89.363281 77.296875 89.242188 77.214844 89.035156 C 77.03125 88.566406 76.714844 88.277344 76.234375 88.140625 C 76.03125 88.078125 75.652344 88.074219 72.960938 88.082031 L 69.921875 88.09375 L 69.6875 88.203125 C 69.355469 88.359375 69.128906 88.582031 68.96875 88.902344 L 68.832031 89.183594 L 68.832031 102.394531 L 68.925781 102.605469 C 69.136719 103.054688 69.519531 103.351562 70.027344 103.460938 C 70.195312 103.492188 71.0625 103.503906 73.195312 103.492188 L 76.136719 103.480469 L 76.371094 103.382812 C 76.648438 103.273438 76.957031 103.015625 77.101562 102.773438 C 77.316406 102.40625 77.332031 102.234375 77.332031 99.957031 L 77.332031 97.859375 L 73.21875 97.859375 L 73.21875 95.054688 L 80.570312 95.054688 L 80.554688 99.265625 C 80.542969 103.476562 80.542969 103.480469 80.449219 103.816406 C 80.394531 104 80.257812 104.347656 80.140625 104.589844 C 79.949219 104.964844 79.871094 105.078125 79.539062 105.40625 C 78.878906 106.066406 78.179688 106.378906 77.152344 106.46875 C 76.574219 106.523438 69.539062 106.519531 68.953125 106.46875 C 67.273438 106.324219 66.105469 105.371094 65.667969 103.800781 L 65.554688 103.398438 L 65.554688 88.222656 L 65.648438 87.855469 C 66.035156 86.339844 67.15625 85.34375 68.75 85.113281 C 68.882812 85.089844 70.910156 85.078125 73.238281 85.082031 L 77.476562 85.089844 Z M 77.835938 85.183594 "/>
<path style=" stroke:none;fill-rule:nonzero;fill:rgb(0%,0%,0%);fill-opacity:1;" d="M 69.417969 86.277344 C 68.242188 86.398438 67.355469 87.078125 67.03125 88.121094 C 66.972656 88.292969 66.90625 88.617188 66.882812 88.839844 C 66.820312 89.394531 66.820312 102.175781 66.882812 102.730469 C 66.933594 103.1875 67.078125 103.671875 67.261719 104.003906 C 67.476562 104.367188 67.902344 104.761719 68.308594 104.960938 C 69 105.296875 68.722656 105.277344 72.859375 105.292969 C 75.546875 105.300781 76.640625 105.292969 76.871094 105.257812 C 78.035156 105.074219 78.796875 104.414062 79.144531 103.285156 C 79.238281 102.980469 79.238281 102.964844 79.253906 99.558594 L 79.265625 96.144531 L 74.519531 96.144531 L 74.519531 96.769531 L 78.632812 96.769531 L 78.632812 99.699219 C 78.632812 102.925781 78.628906 103.003906 78.371094 103.535156 C 78.210938 103.882812 77.851562 104.246094 77.5 104.414062 C 76.957031 104.679688 77 104.679688 72.910156 104.660156 C 69.570312 104.652344 69.1875 104.644531 69.007812 104.582031 C 68.636719 104.453125 68.308594 104.246094 68.074219 104 C 67.824219 103.734375 67.679688 103.472656 67.5625 103.042969 C 67.492188 102.785156 67.488281 102.367188 67.488281 95.765625 C 67.488281 89.121094 67.492188 88.75 67.5625 88.496094 C 67.820312 87.597656 68.398438 87.082031 69.339844 86.925781 C 69.679688 86.867188 70.199219 86.863281 73.246094 86.871094 C 76.445312 86.882812 76.785156 86.890625 77.015625 86.957031 C 77.863281 87.207031 78.394531 87.765625 78.570312 88.597656 C 78.609375 88.769531 78.632812 89.121094 78.632812 89.441406 L 78.632812 89.996094 L 79.273438 89.996094 L 79.25 89.296875 C 79.226562 88.480469 79.167969 88.203125 78.914062 87.699219 C 78.585938 87.039062 77.976562 86.570312 77.160156 86.351562 C 76.808594 86.261719 76.769531 86.261719 73.28125 86.253906 C 71.339844 86.25 69.601562 86.261719 69.417969 86.277344 Z M 69.417969 86.277344 "/>
<path style=" stroke:none;fill-rule:nonzero;fill:rgb(0%,0%,0%);fill-opacity:1;" d="M 15.09375 84.613281 C 15.078125 84.640625 15.074219 89.6875 15.078125 95.832031 L 15.09375 106.992188 L 19.585938 106.992188 L 19.597656 102.839844 L 19.605469 98.695312 L 21.417969 98.703125 L 23.234375 98.714844 L 24.609375 101.871094 C 25.371094 103.605469 26.183594 105.46875 26.417969 106.011719 L 26.847656 106.992188 L 29.242188 107.003906 C 30.554688 107.007812 31.644531 107 31.65625 106.984375 C 31.671875 106.960938 30.847656 105.0625 29.824219 102.75 C 28.800781 100.4375 27.96875 98.53125 27.972656 98.515625 C 27.980469 98.492188 28.109375 98.433594 28.265625 98.382812 C 29.683594 97.886719 30.699219 96.625 30.949219 95.054688 C 30.992188 94.785156 31.003906 93.976562 31.003906 91.566406 C 31.003906 88.070312 31.007812 88.121094 30.710938 87.289062 C 30.507812 86.730469 30.226562 86.285156 29.804688 85.855469 C 29.105469 85.140625 28.265625 84.738281 27.191406 84.605469 C 26.652344 84.539062 15.117188 84.546875 15.09375 84.613281 Z M 27.191406 85.234375 C 28.613281 85.417969 29.703125 86.28125 30.152344 87.574219 C 30.371094 88.195312 30.367188 88.148438 30.382812 91.3125 C 30.398438 94.390625 30.382812 94.847656 30.230469 95.445312 C 29.988281 96.390625 29.296875 97.25 28.449219 97.667969 C 28.121094 97.824219 27.472656 98.023438 27.285156 98.023438 C 27.222656 98.023438 27.160156 98.042969 27.140625 98.0625 C 27.128906 98.082031 27.222656 98.335938 27.347656 98.617188 C 27.46875 98.902344 28.144531 100.429688 28.839844 102.015625 C 30.597656 106.003906 30.730469 106.3125 30.730469 106.355469 C 30.730469 106.371094 29.949219 106.386719 28.992188 106.386719 C 27.65625 106.386719 27.246094 106.375 27.21875 106.332031 C 27.195312 106.308594 26.882812 105.605469 26.523438 104.777344 C 26.019531 103.617188 24.335938 99.742188 23.671875 98.242188 L 23.597656 98.066406 L 18.976562 98.066406 L 18.96875 102.214844 L 18.957031 106.367188 L 15.722656 106.367188 L 15.710938 95.773438 L 15.703125 85.191406 L 21.28125 85.191406 C 24.882812 85.191406 26.976562 85.207031 27.191406 85.234375 Z M 27.191406 85.234375 "/>
<path style=" stroke:none;fill-rule:nonzero;fill:rgb(0%,0%,0%);fill-opacity:1;" d="M 17.042969 95.765625 L 17.042969 105.175781 L 17.632812 105.175781 L 17.640625 101.042969 L 17.65625 96.917969 L 24.539062 96.917969 L 25.777344 99.742188 C 26.457031 101.296875 27.273438 103.15625 27.582031 103.875 L 28.148438 105.175781 L 28.476562 105.175781 C 28.652344 105.175781 28.800781 105.167969 28.800781 105.15625 C 28.800781 105.148438 27.988281 103.292969 27 101.03125 L 25.195312 96.917969 L 25.957031 96.894531 C 26.613281 96.867188 26.777344 96.851562 27.089844 96.753906 C 27.53125 96.625 27.691406 96.542969 28.019531 96.308594 C 28.492188 95.957031 28.84375 95.355469 28.988281 94.660156 C 29.046875 94.363281 29.054688 93.96875 29.042969 91.484375 L 29.03125 88.640625 L 28.894531 88.253906 C 28.640625 87.527344 28.214844 87.019531 27.613281 86.71875 C 27.257812 86.542969 26.945312 86.460938 26.449219 86.402344 C 26.238281 86.378906 24.242188 86.359375 21.570312 86.359375 L 17.042969 86.359375 Z M 26.804688 87.082031 C 27.449219 87.273438 27.917969 87.632812 28.164062 88.125 C 28.417969 88.648438 28.421875 88.660156 28.421875 91.632812 C 28.421875 94.167969 28.417969 94.347656 28.34375 94.648438 C 28.296875 94.824219 28.207031 95.066406 28.144531 95.1875 C 27.988281 95.5 27.621094 95.851562 27.285156 96.011719 C 26.726562 96.273438 26.847656 96.269531 22.015625 96.269531 L 17.632812 96.269531 L 17.632812 91.65625 C 17.632812 89.121094 17.644531 87.03125 17.660156 87.011719 C 17.679688 86.996094 19.6875 86.992188 22.125 86.996094 C 26.191406 87.007812 26.574219 87.015625 26.804688 87.082031 Z M 26.804688 87.082031 "/>
<path style=" stroke:none;fill-rule:nonzero;fill:rgb(0%,0%,0%);fill-opacity:1;" d="M 18.976562 91.671875 L 18.976562 95.140625 L 22.242188 95.140625 C 24.25 95.140625 25.609375 95.125 25.777344 95.097656 C 26.355469 95.007812 26.804688 94.671875 27.003906 94.183594 C 27.101562 93.949219 27.101562 93.949219 27.101562 91.648438 L 27.101562 89.351562 L 26.988281 89.109375 C 26.828125 88.78125 26.6875 88.601562 26.457031 88.457031 C 26.039062 88.191406 26.144531 88.199219 22.386719 88.199219 L 18.976562 88.199219 Z M 25.945312 88.894531 C 26.050781 88.945312 26.183594 89.035156 26.25 89.105469 C 26.488281 89.359375 26.492188 89.40625 26.492188 91.644531 C 26.492188 92.949219 26.476562 93.757812 26.445312 93.855469 C 26.390625 94.054688 26.191406 94.285156 25.96875 94.398438 C 25.796875 94.492188 25.796875 94.492188 22.703125 94.503906 L 19.605469 94.515625 L 19.605469 88.78125 L 22.683594 88.792969 C 25.714844 88.804688 25.761719 88.804688 25.945312 88.894531 Z M 25.945312 88.894531 "/>
<path style=" stroke:none;fill-rule:nonzero;fill:rgb(0%,0%,0%);fill-opacity:1;" d="M 35.433594 95.789062 L 35.433594 107.015625 L 39.925781 107.015625 L 39.925781 84.5625 L 35.433594 84.5625 Z M 39.289062 95.773438 L 39.273438 106.367188 L 36.042969 106.367188 L 36.03125 95.832031 C 36.027344 90.035156 36.03125 85.269531 36.042969 85.242188 C 36.054688 85.203125 36.421875 85.191406 37.679688 85.191406 L 39.296875 85.191406 Z M 39.289062 95.773438 "/>
<path style=" stroke:none;fill-rule:nonzero;fill:rgb(0%,0%,0%);fill-opacity:1;" d="M 37.363281 95.765625 L 37.363281 105.175781 L 37.996094 105.175781 L 37.984375 95.773438 L 37.972656 86.382812 L 37.671875 86.371094 L 37.363281 86.355469 Z M 37.363281 95.765625 "/>
<path style=" stroke:none;fill-rule:nonzero;fill:rgb(0%,0%,0%);fill-opacity:1;" d="M 44.878906 95.789062 L 44.878906 107.019531 L 51.042969 107 C 56.453125 106.988281 57.238281 106.976562 57.515625 106.917969 C 59.1875 106.566406 60.3125 105.597656 60.800781 104.085938 C 61.027344 103.390625 61.019531 103.710938 61.019531 95.765625 C 61.019531 88.820312 61.015625 88.367188 60.945312 88.015625 C 60.589844 86.269531 59.464844 85.113281 57.683594 84.675781 C 57.332031 84.589844 57.273438 84.589844 51.105469 84.574219 L 44.878906 84.558594 Z M 57.335938 85.253906 C 58.859375 85.5 59.90625 86.464844 60.296875 87.976562 L 60.390625 88.347656 L 60.390625 103.230469 L 60.296875 103.605469 C 60.179688 104.082031 59.847656 104.738281 59.574219 105.078125 C 58.976562 105.804688 58.074219 106.25 56.996094 106.34375 C 56.71875 106.371094 54.285156 106.386719 51.023438 106.386719 L 45.507812 106.386719 L 45.507812 85.191406 L 51.230469 85.191406 C 56.105469 85.191406 57.007812 85.199219 57.335938 85.253906 Z M 57.335938 85.253906 "/>
<path style=" stroke:none;fill-rule:nonzero;fill:rgb(0%,0%,0%);fill-opacity:1;" d="M 46.8125 95.765625 L 46.8125 105.179688 L 56.78125 105.15625 L 57.089844 105.058594 C 58.308594 104.6875 58.9375 103.871094 59.070312 102.5 C 59.125 101.925781 59.125 89.585938 59.070312 89.035156 C 58.988281 88.242188 58.769531 87.703125 58.335938 87.246094 C 57.871094 86.757812 57.296875 86.496094 56.496094 86.40625 C 56.230469 86.378906 54.484375 86.359375 51.449219 86.359375 L 46.8125 86.359375 Z M 56.617188 87.050781 C 57.558594 87.21875 58.136719 87.742188 58.386719 88.660156 C 58.457031 88.914062 58.460938 89.363281 58.460938 95.789062 C 58.460938 102.320312 58.457031 102.65625 58.386719 102.917969 C 58.265625 103.335938 58.117188 103.605469 57.867188 103.875 C 57.601562 104.164062 57.265625 104.351562 56.820312 104.464844 C 56.503906 104.542969 56.339844 104.546875 51.964844 104.546875 L 47.441406 104.546875 L 47.441406 86.988281 L 51.84375 86.988281 C 55.625 86.988281 56.296875 86.996094 56.617188 87.050781 Z M 56.617188 87.050781 "/>
<path style=" stroke:none;fill-rule:nonzero;fill:rgb(0%,0%,0%);fill-opacity:1;" d="M 48.742188 95.789062 L 48.742188 103.375 L 52.21875 103.375 C 54.625 103.375 55.769531 103.363281 55.933594 103.328125 C 56.480469 103.222656 56.894531 102.847656 57.054688 102.332031 C 57.136719 102.0625 57.136719 101.953125 57.128906 95.683594 L 57.117188 89.308594 L 56.980469 89.027344 C 56.820312 88.707031 56.589844 88.484375 56.261719 88.328125 L 56.027344 88.222656 L 52.386719 88.207031 L 48.742188 88.199219 Z M 55.964844 88.894531 C 56.195312 89 56.40625 89.234375 56.464844 89.441406 C 56.5 89.554688 56.507812 91.4375 56.5 95.878906 L 56.484375 102.15625 L 56.363281 102.339844 C 56.292969 102.4375 56.148438 102.566406 56.046875 102.621094 L 55.859375 102.726562 L 52.617188 102.742188 L 49.371094 102.75 L 49.371094 88.78125 L 52.574219 88.792969 C 55.714844 88.804688 55.777344 88.804688 55.964844 88.894531 Z M 55.964844 88.894531 "/>
<path style=" stroke:none;fill-rule:nonzero;fill:rgb(0%,0%,0%);fill-opacity:1;" d="M 85.527344 95.773438 L 85.539062 106.992188 L 92.898438 107.003906 L 100.253906 107.015625 L 100.253906 102.75 L 90.011719 102.75 L 90.011719 97.648438 L 98.324219 97.648438 L 98.324219 93.425781 L 94.179688 93.417969 L 90.03125 93.40625 L 90.03125 88.804688 L 95.144531 88.792969 L 100.253906 88.785156 L 100.253906 84.5625 L 85.519531 84.5625 Z M 99.617188 86.683594 L 99.601562 88.179688 L 94.503906 88.191406 L 89.402344 88.199219 L 89.410156 91.117188 L 89.421875 94.03125 L 93.558594 94.046875 L 97.695312 94.054688 L 97.695312 97.023438 L 93.558594 97.03125 L 89.421875 97.042969 L 89.421875 103.355469 L 94.523438 103.367188 L 99.625 103.375 L 99.625 106.386719 L 92.898438 106.378906 L 86.171875 106.367188 L 86.15625 95.773438 L 86.148438 85.191406 L 99.625 85.191406 Z M 99.617188 86.683594 "/>
<path style=" stroke:none;fill-rule:nonzero;fill:rgb(0%,0%,0%);fill-opacity:1;" d="M 87.480469 86.390625 C 87.460938 86.402344 87.449219 90.636719 87.449219 95.796875 L 87.449219 105.175781 L 98.328125 105.175781 L 98.3125 104.867188 L 98.300781 104.570312 L 93.191406 104.554688 L 88.078125 104.546875 L 88.078125 95.851562 L 92.226562 95.84375 L 96.371094 95.832031 L 96.382812 95.523438 L 96.394531 95.222656 L 88.078125 95.222656 L 88.078125 86.988281 L 98.328125 86.988281 L 98.3125 86.683594 L 98.300781 86.382812 L 92.902344 86.371094 C 89.933594 86.363281 87.492188 86.375 87.480469 86.390625 Z M 87.480469 86.390625 "/>
<path style=" stroke:none;fill-rule:nonzero;fill:rgb(0%,0%,0%);fill-opacity:1;" d="M 57.105469 117.546875 C 56.78125 117.640625 56.628906 117.773438 56.445312 118.132812 C 56.257812 118.507812 56.046875 119.113281 56.046875 119.289062 C 56.046875 119.367188 56.015625 119.492188 55.980469 119.566406 C 55.859375 119.804688 55.75 120.148438 55.6875 120.546875 C 55.65625 120.761719 55.597656 121.007812 55.5625 121.089844 C 55.441406 121.375 55.203125 123.082031 55.105469 124.316406 L 55.042969 125.125 L 54.863281 125.28125 C 54.765625 125.363281 54.550781 125.550781 54.386719 125.699219 C 53.929688 126.117188 53.351562 126.453125 53.09375 126.453125 C 52.957031 126.453125 52.953125 126.5 53.105469 125.8125 C 53.226562 125.21875 53.257812 124.664062 53.175781 124.285156 C 53.074219 123.816406 52.960938 123.648438 52.476562 123.28125 C 52.394531 123.214844 52.371094 123.164062 52.367188 122.992188 C 52.363281 122.746094 52.324219 122.6875 52.066406 122.539062 C 51.597656 122.261719 51.328125 122.273438 51.082031 122.578125 C 50.898438 122.808594 50.273438 123.859375 50.023438 124.359375 C 49.800781 124.808594 49.578125 125.453125 49.480469 125.921875 C 49.261719 126.984375 49.304688 128.078125 49.582031 128.628906 C 49.707031 128.878906 49.996094 129.164062 50.230469 129.28125 C 50.644531 129.480469 51.109375 129.375 51.554688 128.972656 C 51.871094 128.695312 52.246094 128.167969 52.472656 127.691406 C 52.585938 127.460938 52.71875 127.234375 52.757812 127.195312 C 52.804688 127.15625 53.011719 127.066406 53.21875 127.003906 C 53.695312 126.855469 54.078125 126.628906 54.570312 126.207031 C 54.789062 126.023438 54.976562 125.878906 54.980469 125.882812 C 54.988281 125.890625 54.972656 126.40625 54.949219 127.039062 C 54.902344 128.351562 54.921875 128.945312 55.058594 130.53125 C 55.164062 131.679688 55.199219 131.855469 55.425781 132.464844 C 55.550781 132.796875 55.574219 132.835938 55.976562 133.207031 C 56.207031 133.425781 56.480469 133.644531 56.585938 133.695312 C 56.820312 133.808594 57.214844 133.839844 57.402344 133.773438 C 57.90625 133.570312 58.3125 132.871094 58.464844 131.941406 C 58.546875 131.4375 58.546875 131.03125 58.488281 130.28125 C 58.445312 129.761719 58.414062 129.628906 58.234375 129.109375 C 57.75 127.722656 57.414062 127.039062 56.9375 126.503906 L 56.667969 126.203125 L 56.875 126.203125 C 56.988281 126.203125 57.179688 126.175781 57.308594 126.140625 C 57.636719 126.050781 58.492188 125.828125 58.511719 125.828125 C 58.519531 125.828125 58.515625 125.867188 58.503906 125.921875 C 58.492188 125.972656 58.460938 126.535156 58.441406 127.164062 C 58.398438 128.367188 58.410156 128.714844 58.570312 130.574219 C 58.667969 131.742188 58.65625 131.667969 58.871094 132.304688 L 59.046875 132.820312 L 59.503906 133.230469 C 59.835938 133.535156 60.007812 133.664062 60.1875 133.726562 C 60.792969 133.953125 61.261719 133.726562 61.628906 133.019531 C 62.015625 132.261719 62.117188 131.382812 61.964844 130.007812 C 61.921875 129.664062 61.664062 128.765625 61.523438 128.492188 C 61.484375 128.421875 61.417969 128.253906 61.371094 128.113281 C 61.230469 127.6875 60.71875 126.800781 60.4375 126.496094 L 60.183594 126.222656 L 60.464844 126.195312 C 60.625 126.183594 60.863281 126.128906 61.007812 126.082031 C 61.230469 126.011719 61.839844 125.867188 61.925781 125.867188 C 61.941406 125.867188 61.9375 125.980469 61.914062 126.109375 C 61.816406 126.691406 62.070312 127.695312 62.457031 128.28125 C 62.71875 128.679688 63.191406 128.878906 63.859375 128.878906 C 64.136719 128.878906 64.1875 128.863281 64.539062 128.679688 C 65.019531 128.429688 65.488281 127.976562 66.035156 127.214844 C 66.140625 127.074219 66.234375 126.957031 66.246094 126.957031 C 66.257812 126.957031 66.3125 127.105469 66.359375 127.289062 C 66.5 127.78125 66.757812 128.28125 66.976562 128.492188 C 67.21875 128.734375 67.527344 128.839844 68.058594 128.867188 C 68.457031 128.886719 68.460938 128.886719 68.773438 128.734375 C 68.945312 128.648438 69.175781 128.511719 69.28125 128.429688 C 69.839844 128.027344 71.328125 125.992188 71.328125 125.636719 C 71.328125 125.46875 71.238281 125.367188 71.082031 125.367188 C 70.9375 125.367188 70.871094 125.441406 70.699219 125.785156 C 70.480469 126.21875 70.019531 126.871094 69.421875 127.578125 C 69.058594 128.015625 68.851562 128.167969 68.644531 128.167969 C 68.460938 128.167969 68.097656 127.96875 67.980469 127.804688 C 67.847656 127.625 67.742188 127.214844 67.746094 126.902344 C 67.746094 126.449219 67.933594 126.132812 68.582031 125.445312 C 69.230469 124.765625 69.410156 124.539062 69.5625 124.242188 C 69.816406 123.742188 69.875 123.347656 69.738281 123.070312 C 69.617188 122.835938 69.222656 122.503906 68.980469 122.421875 C 68.792969 122.355469 68.753906 122.355469 68.511719 122.421875 C 68.136719 122.515625 67.972656 122.613281 67.6875 122.890625 C 67.03125 123.535156 66.5625 124.476562 66.324219 125.636719 C 66.242188 126.023438 66.21875 126.085938 65.976562 126.433594 C 65.636719 126.917969 65.078125 127.617188 64.800781 127.898438 C 64.464844 128.238281 64.148438 128.253906 63.785156 127.9375 C 63.535156 127.730469 63.421875 127.421875 63.421875 126.957031 C 63.417969 126.382812 63.566406 126.132812 64.464844 125.203125 C 64.726562 124.933594 65.015625 124.589844 65.113281 124.449219 C 65.289062 124.171875 65.492188 123.613281 65.492188 123.398438 C 65.492188 123.035156 65.0625 122.554688 64.601562 122.402344 C 64.476562 122.363281 64.40625 122.367188 64.1875 122.421875 C 63.796875 122.519531 63.613281 122.628906 63.304688 122.941406 C 62.816406 123.433594 62.515625 123.953125 62.234375 124.78125 C 62.074219 125.238281 62.066406 125.253906 61.902344 125.332031 C 61.808594 125.367188 61.613281 125.433594 61.464844 125.46875 C 61.3125 125.503906 61.082031 125.5625 60.957031 125.601562 C 60.78125 125.652344 60.609375 125.660156 60.246094 125.648438 C 59.625 125.617188 59.617188 125.617188 59.644531 125.398438 C 59.679688 125.074219 59.785156 124.769531 59.945312 124.535156 C 60.121094 124.285156 60.714844 123.273438 61.128906 122.539062 C 61.269531 122.285156 61.433594 121.933594 61.492188 121.75 C 61.550781 121.566406 61.683594 121.1875 61.78125 120.902344 C 61.949219 120.445312 61.972656 120.320312 62.011719 119.816406 C 62.074219 119.0625 62.042969 118.472656 61.933594 118.1875 C 61.753906 117.738281 61.433594 117.46875 61.058594 117.464844 C 60.835938 117.464844 60.375 117.609375 60.226562 117.722656 C 60.007812 117.890625 59.53125 119.015625 59.53125 119.355469 C 59.53125 119.433594 59.515625 119.515625 59.492188 119.535156 C 59.417969 119.621094 59.273438 120.078125 59.199219 120.507812 C 59.152344 120.753906 59.089844 121.035156 59.050781 121.128906 C 58.910156 121.535156 58.652344 123.5 58.582031 124.734375 C 58.546875 125.339844 58.558594 125.320312 58.042969 125.445312 C 57.855469 125.488281 57.582031 125.558594 57.433594 125.597656 C 57.21875 125.65625 57.0625 125.664062 56.71875 125.648438 C 56.226562 125.621094 56.132812 125.597656 56.132812 125.5 C 56.132812 125.257812 56.238281 124.882812 56.371094 124.667969 C 57.21875 123.296875 57.882812 122.105469 57.984375 121.777344 C 58.027344 121.625 58.152344 121.253906 58.265625 120.957031 C 58.460938 120.402344 58.464844 120.367188 58.546875 119.261719 C 58.597656 118.605469 58.457031 118.054688 58.152344 117.742188 C 57.875 117.453125 57.605469 117.402344 57.105469 117.546875 Z M 57.957031 118.320312 C 58.117188 118.695312 58.066406 119.992188 57.867188 120.527344 C 57.761719 120.828125 57.683594 121.058594 57.511719 121.605469 C 57.460938 121.753906 57.292969 122.09375 57.136719 122.355469 C 56.984375 122.621094 56.738281 123.042969 56.589844 123.289062 C 56.449219 123.535156 56.324219 123.734375 56.320312 123.730469 C 56.3125 123.71875 56.324219 123.632812 56.347656 123.527344 C 56.367188 123.421875 56.414062 123.070312 56.445312 122.734375 C 56.5 122.261719 56.582031 121.851562 56.84375 120.851562 C 57.027344 120.148438 57.183594 119.492188 57.203125 119.390625 C 57.265625 118.960938 57.4375 118.566406 57.691406 118.28125 C 57.828125 118.117188 57.875 118.125 57.957031 118.320312 Z M 61.433594 118.25 C 61.46875 118.3125 61.511719 118.554688 61.539062 118.78125 C 61.617188 119.488281 61.5 120.355469 61.265625 120.820312 C 61.210938 120.933594 61.144531 121.132812 61.121094 121.261719 C 61.0625 121.578125 60.953125 121.832031 60.640625 122.355469 C 60.5 122.601562 60.261719 123 60.113281 123.253906 C 59.847656 123.707031 59.777344 123.757812 59.859375 123.429688 C 59.882812 123.335938 59.914062 123.113281 59.929688 122.941406 C 59.980469 122.351562 60.042969 122.003906 60.226562 121.292969 C 60.332031 120.898438 60.472656 120.371094 60.539062 120.121094 C 60.605469 119.867188 60.679688 119.527344 60.710938 119.367188 C 60.734375 119.207031 60.792969 118.976562 60.839844 118.859375 C 60.921875 118.628906 61.265625 118.132812 61.335938 118.132812 C 61.359375 118.132812 61.40625 118.183594 61.433594 118.25 Z M 56.785156 118.644531 C 56.769531 118.699219 56.746094 118.789062 56.734375 118.851562 C 56.703125 119 56.601562 119.003906 56.566406 118.867188 C 56.539062 118.742188 56.640625 118.554688 56.742188 118.554688 C 56.792969 118.554688 56.804688 118.578125 56.785156 118.644531 Z M 60.296875 118.578125 C 60.335938 118.621094 60.199219 118.976562 60.144531 118.957031 C 60.082031 118.9375 60.0625 118.742188 60.121094 118.636719 C 60.160156 118.558594 60.246094 118.527344 60.296875 118.578125 Z M 56.589844 119.105469 C 56.589844 119.253906 56.320312 120.203125 56.195312 120.5 C 56.035156 120.886719 56.015625 120.957031 55.984375 121.445312 C 55.964844 121.824219 55.9375 121.941406 55.878906 121.941406 C 55.785156 121.941406 55.804688 121.683594 55.949219 120.832031 C 56.011719 120.460938 56.394531 119.207031 56.472656 119.105469 C 56.5 119.078125 56.53125 119.054688 56.554688 119.054688 C 56.574219 119.054688 56.589844 119.078125 56.589844 119.105469 Z M 60.078125 119.140625 C 60.078125 119.285156 59.824219 120.230469 59.742188 120.386719 C 59.59375 120.679688 59.523438 120.960938 59.488281 121.398438 C 59.457031 121.859375 59.429688 121.960938 59.355469 121.914062 C 59.300781 121.882812 59.34375 121.390625 59.457031 120.808594 C 59.527344 120.417969 59.859375 119.316406 59.960938 119.125 C 60.007812 119.03125 60.078125 119.035156 60.078125 119.140625 Z M 64.960938 123.21875 C 65.109375 123.601562 64.707031 124.351562 63.980469 125.050781 C 63.566406 125.445312 63.453125 125.519531 63.496094 125.375 C 63.507812 125.339844 63.546875 125.191406 63.585938 125.054688 C 63.734375 124.535156 64.070312 123.863281 64.375 123.46875 C 64.589844 123.199219 64.90625 123.058594 64.960938 123.21875 Z M 69.316406 123.285156 C 69.378906 123.53125 69.191406 124.015625 68.855469 124.453125 C 68.558594 124.84375 67.878906 125.5 67.828125 125.449219 C 67.820312 125.441406 67.855469 125.273438 67.914062 125.074219 C 68.039062 124.652344 68.355469 123.972656 68.59375 123.613281 C 68.890625 123.191406 69.246094 123.023438 69.316406 123.285156 Z M 52.5 124.046875 C 52.667969 124.222656 52.6875 124.332031 52.6875 124.945312 C 52.6875 125.433594 52.574219 126.0625 52.417969 126.433594 L 52.355469 126.582031 L 52.050781 126.582031 C 51.664062 126.582031 51.4375 126.484375 51.265625 126.246094 C 51.058594 125.960938 51.058594 125.875 51.273438 125.5 C 51.371094 125.324219 51.578125 124.945312 51.722656 124.65625 C 51.867188 124.367188 52.019531 124.085938 52.066406 124.019531 C 52.179688 123.859375 52.328125 123.867188 52.5 124.046875 Z M 56.371094 126.625 C 56.722656 126.996094 56.855469 127.199219 57.195312 127.878906 C 57.480469 128.433594 57.828125 129.378906 57.929688 129.839844 C 58.046875 130.378906 58.066406 131.589844 57.960938 132.027344 C 57.875 132.386719 57.671875 132.875 57.539062 133.039062 C 57.445312 133.15625 57.4375 133.160156 57.359375 133.097656 C 57.320312 133.058594 57.230469 133.015625 57.160156 133 C 57.085938 132.984375 56.90625 132.855469 56.730469 132.6875 C 56.453125 132.421875 56.421875 132.378906 56.324219 132.058594 C 56.148438 131.5 55.980469 129.292969 56.023438 128.085938 C 56.054688 127.160156 56.097656 126.371094 56.113281 126.371094 C 56.117188 126.371094 56.234375 126.484375 56.371094 126.625 Z M 59.886719 126.628906 C 60.210938 126.972656 60.40625 127.273438 60.746094 127.980469 C 61.046875 128.585938 61.28125 129.230469 61.429688 129.839844 C 61.550781 130.351562 61.5625 131.75 61.449219 132.121094 C 61.335938 132.480469 61.128906 132.9375 61.035156 133.046875 C 60.957031 133.125 60.941406 133.128906 60.839844 133.082031 C 60.777344 133.046875 60.667969 133 60.597656 132.976562 C 60.527344 132.953125 60.347656 132.8125 60.207031 132.667969 C 59.78125 132.242188 59.707031 131.953125 59.59375 130.238281 C 59.5625 129.707031 59.527344 129.089844 59.519531 128.859375 C 59.507812 128.300781 59.578125 126.371094 59.609375 126.371094 C 59.625 126.371094 59.75 126.488281 59.886719 126.628906 Z M 50.992188 126.792969 C 51.148438 126.964844 51.410156 127.082031 51.753906 127.128906 C 51.914062 127.148438 52.050781 127.183594 52.066406 127.199219 C 52.085938 127.214844 52.011719 127.40625 51.914062 127.617188 C 51.707031 128.027344 51.289062 128.523438 51.109375 128.570312 C 50.867188 128.632812 50.589844 128.289062 50.589844 127.925781 C 50.589844 127.574219 50.765625 126.664062 50.835938 126.664062 C 50.855469 126.664062 50.921875 126.722656 50.992188 126.792969 Z M 50.992188 126.792969 "/>
<path style=" stroke:none;fill-rule:nonzero;fill:rgb(0%,0%,0%);fill-opacity:1;" d="M 47.796875 118.566406 C 47.472656 118.648438 47.289062 118.742188 46.847656 119.035156 C 45.9375 119.640625 45.375 120.574219 44.824219 122.378906 C 44.335938 123.992188 44.160156 124.914062 44.035156 126.664062 C 43.910156 128.398438 44.195312 129.59375 44.9375 130.472656 C 45.371094 130.980469 45.644531 131.117188 46.222656 131.117188 C 46.683594 131.117188 46.90625 131.03125 47.226562 130.742188 C 47.609375 130.386719 47.847656 129.953125 48.195312 128.96875 C 48.332031 128.585938 48.503906 128.113281 48.574219 127.917969 C 48.78125 127.371094 48.738281 127.039062 48.46875 127.039062 C 48.238281 127.039062 48.171875 127.171875 47.539062 128.980469 C 47.332031 129.570312 47.164062 129.871094 46.917969 130.082031 C 46.730469 130.25 46.386719 130.425781 46.253906 130.425781 C 46.046875 130.425781 45.878906 130.128906 45.699219 129.445312 C 45.492188 128.667969 45.472656 127.738281 45.617188 126.308594 C 45.699219 125.546875 45.777344 125.078125 45.9375 124.488281 C 46.003906 124.226562 46.078125 123.917969 46.105469 123.808594 C 46.125 123.699219 46.179688 123.546875 46.222656 123.472656 C 46.265625 123.398438 46.347656 123.199219 46.402344 123.027344 C 46.460938 122.855469 46.710938 122.160156 46.957031 121.484375 C 47.660156 119.570312 47.871094 119.179688 48.191406 119.179688 C 48.40625 119.179688 48.742188 119.347656 48.972656 119.570312 L 49.167969 119.761719 L 49.152344 120.277344 C 49.132812 120.742188 49.113281 120.832031 48.964844 121.25 C 48.796875 121.707031 48.53125 122.261719 48.367188 122.503906 C 48.144531 122.828125 48.378906 123.199219 48.699219 123.027344 C 48.917969 122.910156 49.394531 122 49.710938 121.105469 C 49.835938 120.746094 49.851562 120.65625 49.851562 120.246094 C 49.855469 119.835938 49.839844 119.761719 49.746094 119.554688 C 49.601562 119.246094 49.441406 119.074219 49.082031 118.832031 C 48.625 118.519531 48.277344 118.449219 47.796875 118.566406 Z M 46.285156 120.230469 C 46.320312 120.277344 46.191406 120.644531 46.140625 120.644531 C 46.089844 120.644531 46.011719 120.542969 46.011719 120.472656 C 46.011719 120.398438 46.167969 120.183594 46.222656 120.183594 C 46.242188 120.183594 46.273438 120.203125 46.285156 120.230469 Z M 46.011719 120.785156 C 46.011719 120.921875 45.734375 121.621094 45.484375 122.105469 C 45.261719 122.539062 45.207031 122.683594 45.171875 122.941406 C 45.113281 123.371094 45.074219 123.507812 45 123.507812 C 44.925781 123.507812 44.929688 123.394531 45.039062 122.878906 C 45.152344 122.324219 45.296875 121.949219 45.625 121.28125 C 45.871094 120.785156 46.011719 120.609375 46.011719 120.785156 Z M 46.011719 120.785156 "/>
</g>
</svg>
